<?xml version="1.0" standalone="no"?><!DOCTYPE svg PUBLIC "-//W3C//DTD SVG 1.1//EN" "http://www.w3.org/Graphics/SVG/1.1/DTD/svg11.dtd"><svg t="1565864784400" class="icon" viewBox="0 0 1025 1024" version="1.1" xmlns="http://www.w3.org/2000/svg" p-id="3403" width="128.125" height="128" xmlns:xlink="http://www.w3.org/1999/xlink"><defs><style type="text/css"></style></defs><path d="M684.260168 432.676056a51.289128 51.289128 0 0 1-51.289128-51.289128 121.781295 121.781295 0 0 0-243.562589 0 51.289128 51.289128 0 1 1-102.537744 0 224.359551 224.359551 0 1 1 448.678589 0 51.289128 51.289128 0 0 1-51.289128 51.289128z" p-id="3404"></path><path d="M841.328058 432.676056a51.289128 51.289128 0 0 1-51.289128-51.289128 278.849185 278.849185 0 1 0-557.657857 0 51.289128 51.289128 0 0 1-102.578256 0 381.386928 381.386928 0 1 1 762.773857 0 51.289128 51.289128 0 0 1-51.248616 51.289128z" p-id="3405"></path><path d="M961.488843 608.906473h-397.348947v-176.230417a51.289128 51.289128 0 0 0-102.578257 0v176.230417h-397.429973a64.091154 64.091154 0 0 0-64.091153 64.091153v286.830195a64.091154 64.091154 0 0 0 64.091153 64.091154h897.357177a64.091154 64.091154 0 0 0 64.091154-64.091154v-286.830195a64.091154 64.091154 0 0 0-64.091154-64.091153z m-803.367621 258.795379a51.289128 51.289128 0 1 1 51.289128-51.289128 51.289128 51.289128 0 0 1-51.289128 51.289128z m155.406868 0a51.289128 51.289128 0 1 1 51.289128-51.289128 51.289128 51.289128 0 0 1-51.289128 51.32964z" p-id="3406"></path></svg>