<?xml version="1.0" standalone="no"?><!DOCTYPE svg PUBLIC "-//W3C//DTD SVG 1.1//EN" "http://www.w3.org/Graphics/SVG/1.1/DTD/svg11.dtd"><svg t="1565588307793" class="icon" viewBox="0 0 1024 1024" version="1.1" xmlns="http://www.w3.org/2000/svg" p-id="8825" xmlns:xlink="http://www.w3.org/1999/xlink" width="200" height="200"><defs><style type="text/css"></style></defs><path d="M952 792H72c-4.4 0-8 3.6-8 8v56c0 4.4 3.6 8 8 8h880c4.4 0 8-3.6 8-8v-56c0-4.4-3.6-8-8-8zM952 160H72c-4.4 0-8 3.6-8 8v56c0 4.4 3.6 8 8 8h880c4.4 0 8-3.6 8-8v-56c0-4.4-3.6-8-8-8zM848 660c8.8 0 16-7.2 16-16V380c0-8.8-7.2-16-16-16H176c-8.8 0-16 7.2-16 16v264c0 8.8 7.2 16 16 16h672zM232 436h560v152H232V436z" p-id="8826"></path></svg>