<?xml version="1.0" standalone="no"?><!DOCTYPE svg PUBLIC "-//W3C//DTD SVG 1.1//EN" "http://www.w3.org/Graphics/SVG/1.1/DTD/svg11.dtd"><svg t="1563516851041" class="icon" viewBox="0 0 1024 1024" version="1.1" xmlns="http://www.w3.org/2000/svg" p-id="13403" id="mx_n_1563516851045" xmlns:xlink="http://www.w3.org/1999/xlink" width="200" height="200"><defs><style type="text/css"></style></defs><path d="M883.2 0l-742.4 0c-44.8 0-76.8 32-76.8 76.8l0 870.4c0 44.8 32 76.8 76.8 76.8l742.4 0c44.8 0 76.8-32 76.8-76.8l0-870.4c0-44.8-32-76.8-76.8-76.8zM364.8 217.6l0-128 294.4 0 0 128 70.4 0-217.6 128-217.6-128 70.4 0zM204.8 428.8l620.8 0 0 83.2-620.8 0 0-83.2zM224 921.6l-76.8-147.2 25.6 0 0-147.2 108.8 0 0 147.2 19.2 0-76.8 147.2zM512 915.2l-76.8-153.6 25.6 0 0-140.8 108.8 0 0 140.8 19.2 0-76.8 153.6zM800 921.6l-76.8-147.2 25.6 0 0-147.2 108.8 0 0 147.2 19.2 0-76.8 147.2z" p-id="13404"></path></svg>