<?xml version="1.0" standalone="no"?><!DOCTYPE svg PUBLIC "-//W3C//DTD SVG 1.1//EN" "http://www.w3.org/Graphics/SVG/1.1/DTD/svg11.dtd"><svg t="1584688670603" class="icon" viewBox="0 0 1024 1024" version="1.1" xmlns="http://www.w3.org/2000/svg" p-id="4075" xmlns:xlink="http://www.w3.org/1999/xlink" width="200" height="200"><defs><style type="text/css"></style></defs><path d="M799.584 687.424l53.728-43.488c131.328-106.368 151.584-299.04 45.248-430.368S599.52 61.952 468.192 168.32l-51.52 41.728L306.72 72.96a32 32 0 0 0-49.28 40.832l640.416 798.4a32 32 0 0 0 49.28-40.832l-147.552-183.936zM518.528 230.496a225.984 225.984 0 1 1 284.448 351.264l-53.44 43.264-118.72-148 84.864-70.688-51.232-61.472-83.68 69.76-114.048-142.176 51.808-41.952zM504.384 823.552a225.984 225.984 0 1 1-284.448-351.264l110.976-89.856-50.336-62.176L169.6 410.112C38.272 516.448 18.016 709.152 124.352 840.48c106.368 131.328 299.04 151.584 430.368 45.248l105.12-85.12-50.336-62.176-105.12 85.12z" p-id="4076"></path><path d="M446.72 526.304l51.2 61.44-125.856 104.864-51.2-61.44z" p-id="4077"></path></svg>