<?xml version="1.0" standalone="no"?><!DOCTYPE svg PUBLIC "-//W3C//DTD SVG 1.1//EN" "http://www.w3.org/Graphics/SVG/1.1/DTD/svg11.dtd"><svg t="1566546330809" class="icon" viewBox="0 0 1024 1024" version="1.1" xmlns="http://www.w3.org/2000/svg" p-id="5445" xmlns:xlink="http://www.w3.org/1999/xlink" width="200" height="200"><defs><style type="text/css"></style></defs><path d="M1024 908.8c0 63.616-51.584 115.2-115.2 115.2L115.2 1024C51.584 1024 0 972.416 0 908.8L0 115.2C0 51.584 51.584 0 115.2 0l793.6 0C972.416 0 1024 51.584 1024 115.2L1024 908.8zM128 64C89.6 64 64 89.6 64 128l0 768c0 38.4 25.6 64 70.4 64L896 960c38.4 0 64-19.2 64-57.6L960 128c0-38.4-25.6-64-64-64L128 64z" p-id="5446" fill="#1296db"></path><path d="M384 332.8 742.4 512 384 691.2Z" p-id="5447" fill="#1296db"></path></svg>