<?xml version="1.0" standalone="no"?><!DOCTYPE svg PUBLIC "-//W3C//DTD SVG 1.1//EN" "http://www.w3.org/Graphics/SVG/1.1/DTD/svg11.dtd"><svg t="1562919488114" class="icon" viewBox="0 0 1106 1024" version="1.1" xmlns="http://www.w3.org/2000/svg" p-id="4288" xmlns:xlink="http://www.w3.org/1999/xlink" width="216.015625" height="200"><defs><style type="text/css"></style></defs><path d="M483.27895 940.7838c-55.220593-44.964987-121.938125-97.628119-148.261212-117.029171L287.157576 788.48 446.576251 619.52C534.256517 526.592 612.49407 450.56 620.437463 450.56 628.380856 450.56 634.88 492.032 634.88 542.72c0 90.345472 1.310515 92.157747 66.56 92.045783 101.381243-0.17408 205.126697-34.865172 304.400589-101.787812 103.626875-69.857075 124.665672-48.259912 68.430602 70.246707C1010.175386 738.296545 905.891901 805.307167 691.2 849.379021 641.127711 859.657851 634.88 869.984645 634.88 942.470185c0 103.083418-23.253074 102.824755-151.60105-1.686323zM229.053338 879.23415C180.440662 869.665219 109.016662 842.275328 70.333331 818.367713L0 774.899323 0 452.063805C0 88.071334-0.203052 88.59776 162.311637 31.259238 282.189578-11.036164 597.501133-10.250069 723.429827 32.658147 875.50806 84.476414 901.12 132.95802 901.12 369.013289c0 189.731635-2.289091 200.262943-46.08 211.998454-72.704369 19.484017-78.378844 16.089641-64.636416-38.66454 12.242534-48.77822 9.971937-50.442834-41.903063-30.72C669.052703 541.833216 655.36 537.976668 655.36 485.394186c0-35.221893 18.060739-53.61664 71.68-73.005629 47.388119-17.135759 71.68-38.997504 71.68-64.509153 0-36.985303-3.19234-37.175583-76.8-4.577792-106.93929 47.359037-456.26071 47.359037-563.2 0L81.92 309.290045 81.92 358.651617c0 41.756488 16.349348 54.216806 106.117145 80.874967C246.401577 456.858972 347.777577 471.04 413.31714 471.04 478.856724 471.04 532.48 478.4128 532.48 487.424 532.48 555.963351 346.721505 575.222211 177.334905 524.244337 86.534646 496.917484 81.92 497.463255 81.92 535.52937 81.92 584.137503 191.413897 634.88 296.302203 634.88c80.910295 0 90.254193 18.397594 34.822185 68.562883-34.132193 30.889206-46.5997 31.195464-138.240008 3.39583C70.942841 669.84702 81.92 670.199788 81.92 703.272653 81.92 729.353605 163.219528 778.24 206.592942 778.24 234.219889 778.24 348.16 863.75637 348.16 884.491428c0 18.598564 2.690765 18.717348-119.106662-5.257277zM712.774943 252.686479c103.228846-37.047521 108.106609-82.172232 14.014607-129.650555-85.481779-43.133657-487.457321-43.133657-572.939104 0C-89.060108 245.607301 409.961226 361.362452 712.774943 252.686479Z" p-id="4289"></path></svg>