<?xml version="1.0" standalone="no"?><!DOCTYPE svg PUBLIC "-//W3C//DTD SVG 1.1//EN" "http://www.w3.org/Graphics/SVG/1.1/DTD/svg11.dtd"><svg t="1563154210112" class="icon" viewBox="0 0 1024 1024" version="1.1" xmlns="http://www.w3.org/2000/svg" p-id="1125" xmlns:xlink="http://www.w3.org/1999/xlink" width="200" height="200"><defs><style type="text/css"></style></defs><path d="M865.531509 690.373614l-100.531649 144.437895-70.943439-58.224281a17.964912 17.964912 0 0 0-25.276632 2.479158 17.928982 17.928982 0 0 0 2.497123 25.276632l85.98007 70.58414a17.928982 17.928982 0 0 0 26.138948-3.610947l111.633965-160.408702a17.964912 17.964912 0 0 0-29.498386-20.533895z" fill="" p-id="1126"></path><path d="M916.210526 606.746947V161.684211a17.605614 17.605614 0 0 0-2.622877-8.802807C892.802246 75.81193 737.962667 0 467.087719 0S41.373193 75.81193 20.587789 152.881404A17.605614 17.605614 0 0 0 17.964912 161.684211v664.701754a16.707368 16.707368 0 0 0 2.101895 8.102175C41.265404 922.426386 231.100632 988.070175 467.087719 988.070175c56.876912 0 112.226807-3.952281 164.846035-11.551438A232.034807 232.034807 0 0 0 772.491228 1024c128.772491 0 233.54386-104.771368 233.54386-233.54386 0-74.554386-35.247158-140.916772-89.824562-183.709193z m-58.40393-33.468631c-2.515088-0.98807-5.04814-1.868351-7.581192-2.784562-5.587088-1.97614-11.264-3.736702-17.030737-5.299649-2.874386-0.772491-5.730807-1.562947-8.623158-2.227649a233.831298 233.831298 0 0 0-17.875088-3.269614c-2.658807-0.395228-5.281684-0.916211-7.958456-1.221614A239.148912 239.148912 0 0 0 772.491228 556.912281c-7.455439 0-14.803088 0.431158-22.096842 1.131789-2.425263 0.233544-4.796632 0.628772-7.20393 0.916211-4.832561 0.610807-9.647158 1.293474-14.389895 2.209684a197.973333 197.973333 0 0 0-8.138105 1.760561 228.100491 228.100491 0 0 0-34.277052 10.671158c-2.137825 0.844351-4.311579 1.634807-6.413474 2.551018-5.946386 2.568982-11.767018 5.371509-17.44393 8.407579-0.449123 0.251509-0.934175 0.449123-1.401263 0.700631-6.431439 3.503158-12.647298 7.311719-18.701474 11.37179-0.664702 0.449123-1.293474 0.95214-1.958175 1.419228-5.209825 3.575018-10.257965 7.365614-15.162386 11.353824-1.203649 0.970105-2.335439 1.994105-3.521123 3.000141a241.053193 241.053193 0 0 0-16.114526 15.000701c-3.862456 3.952281-7.581193 8.048281-11.156211 12.288-1.09586 1.293474-2.209684 2.551018-3.269614 3.862457-3.628912 4.473263-7.042246 9.072281-10.347789 13.815017-0.826386 1.185684-1.706667 2.317474-2.497123 3.503158-3.898386 5.838596-7.617123 11.838877-10.994527 18.072702-0.269474 0.485053-0.485053 0.98807-0.754526 1.473123-3.00014 5.623018-5.802667 11.407719-8.353684 17.318175-1.491088 3.431298-2.748632 7.006316-4.096 10.527439-1.077895 2.874386-2.209684 5.730807-3.17979 8.659087-1.401263 4.185825-2.586947 8.479439-3.754666 12.773053-0.377263 1.383298-0.862316 2.694737-1.203649 4.096-7.150035 0.485053-14.318035 0.916211-21.504 1.257544-4.796632 0.233544-9.557333 0.538947-14.353965 0.718596-14.37193 0.467088-28.761825 0.790456-43.11579 0.790457-14.856982 0-29.408561-0.287439-43.690666-0.790457-8.659088-0.323368-17.012772-0.880281-25.456281-1.365333-5.335579-0.305404-10.832842-0.503018-16.078597-0.880281a1053.049263 1053.049263 0 0 1-32.857824-2.96421c-2.155789-0.233544-4.419368-0.377263-6.557193-0.610807a1007.921404 1007.921404 0 0 1-36.019649-4.599018l-1.293474-0.161684c-60.703439-8.964491-112.801684-22.635789-153.56407-38.894035l-0.916211-0.359298a385.778526 385.778526 0 0 1-21.090807-9.233965c-0.844351-0.395228-1.742596-0.790456-2.586947-1.203649-5.982316-2.874386-11.497544-5.838596-16.797193-8.820772-1.311439-0.754526-2.694737-1.491088-3.970246-2.245614-4.599018-2.694737-8.802807-5.461333-12.826947-8.22793-1.598877-1.113825-3.233684-2.209684-4.724772-3.323509a149.629754 149.629754 0 0 1-14.120421-11.892772 98.968702 98.968702 0 0 1-10.473544-12.036491 61.691509 61.691509 0 0 1-6.700912-11.964632 44.696702 44.696702 0 0 1-2.048-6.395508C54.631298 607.663158 53.894737 604.734877 53.894737 601.824561v-147.438035l1.024 0.862316c4.16786 3.682807 8.443509 7.347649 13.258105 10.868772C135.940491 517.227789 271.180351 556.912281 467.087719 556.912281c195.458246 0 330.482526-39.504842 398.40786-90.435369 5.209825-3.808561 9.880702-7.742877 14.353965-11.731087l0.431158-0.377264v129.006035c-0.95214-0.503018-1.97614-0.826386-2.946246-1.329403a235.268491 235.268491 0 0 0-19.52786-8.766877zM64.691649 247.861895c5.389474 4.239719 11.210105 8.425544 17.51579 12.503579 1.311439 0.844351 2.784561 1.670737 4.149894 2.515087a307.379649 307.379649 0 0 0 23.336421 13.132351c6.557193 3.341474 13.437754 6.575158 20.677614 9.736983 1.185684 0.520982 2.263579 1.05993 3.467228 1.562947 8.425544 3.575018 17.37207 6.988351 26.677895 10.27593 2.568982 0.916211 5.263719 1.778526 7.904562 2.676772 7.401544 2.497123 15.054596 4.886456 22.977122 7.20393 2.856421 0.826386 5.658947 1.688702 8.587229 2.497122 10.509474 2.910316 21.360281 5.676912 32.750035 8.22793 1.562947 0.359298 3.251649 0.664702 4.832561 1.006035a786.46793 786.46793 0 0 0 42.181614 7.976421c10.186105 1.670737 20.677614 3.215719 31.438597 4.616983 2.766596 0.359298 5.407439 0.754526 8.209964 1.113824 13.365895 1.616842 27.198877 3.00014 41.409123 4.185825 3.503158 0.287439 7.150035 0.503018 10.707088 0.754526 11.371789 0.826386 22.995088 1.509053 34.88786 2.048 4.329544 0.197614 8.641123 0.395228 13.060491 0.538948 15.503719 0.520982 31.276912 0.898246 47.624982 0.898245s32.121263-0.377263 47.607018-0.898245c4.401404-0.143719 8.712982-0.359298 13.060491-0.538948 11.892772-0.538947 23.51607-1.221614 34.88786-2.048 3.557053-0.269474 7.185965-0.467088 10.707087-0.754526a1085.727439 1085.727439 0 0 0 41.409123-4.185825c2.802526-0.341333 5.443368-0.754526 8.209965-1.113824a968.380632 968.380632 0 0 0 42.451088-6.485333 786.46793 786.46793 0 0 0 31.169123-6.108071c1.580912-0.341333 3.269614-0.646737 4.832561-1.006035a675.067509 675.067509 0 0 0 32.750035-8.22793c2.928281-0.808421 5.730807-1.652772 8.587228-2.497122 7.922526-2.299509 15.575579-4.706807 22.977123-7.20393 2.640842-0.898246 5.335579-1.760561 7.904561-2.676772a488.537825 488.537825 0 0 0 26.677895-10.27593c1.203649-0.503018 2.281544-1.05993 3.467228-1.562947a384.03593 384.03593 0 0 0 27.270737-13.204211c5.874526-3.14386 11.461614-6.359579 16.743298-9.665123 1.365333-0.844351 2.838456-1.670737 4.149895-2.515087 6.305684-4.078035 12.126316-8.245895 17.51579-12.503579 1.347368-1.077895 2.551018-2.155789 3.862456-3.233684 2.335439-1.940211 4.796632-3.862456 6.952421-5.820632V386.245614c0 2.928281-0.736561 5.874526-1.437193 8.820772a45.720702 45.720702 0 0 1-4.670877 11.856842 65.877333 65.877333 0 0 1-8.102176 11.605333 95.914667 95.914667 0 0 1-11.22807 11.264c-2.874386 2.497123-5.874526 4.994246-9.216 7.455439-1.544982 1.149754-3.233684 2.281544-4.868491 3.413333-3.988211 2.748632-8.138105 5.479298-12.683228 8.138106-1.329404 0.790456-2.748632 1.562947-4.13193 2.335438a290.85193 290.85193 0 0 1-16.635509 8.748912l-2.748632 1.275509c-6.629053 3.125895-13.545544 6.197895-20.947087 9.162106l-1.041965 0.395228c-40.762386 16.240281-92.806737 29.911579-153.474246 38.87607l-1.329403 0.179649a1011.065263 1011.065263 0 0 1-35.98372 4.599017c-2.155789 0.233544-4.419368 0.395228-6.593122 0.610807-10.760982 1.113825-21.629754 2.155789-32.821895 2.964211-5.263719 0.377263-10.760982 0.574877-16.114526 0.880281-8.425544 0.485053-16.779228 1.05993-25.438316 1.365333a1243.567158 1243.567158 0 0 1-87.417263 0c-8.659088-0.323368-17.012772-0.880281-25.456281-1.365333-5.335579-0.305404-10.832842-0.503018-16.078597-0.880281a1053.049263 1053.049263 0 0 1-32.857824-2.964211c-2.155789-0.233544-4.419368-0.377263-6.557193-0.610807a1007.921404 1007.921404 0 0 1-36.019649-4.599017l-1.293474-0.161684c-60.703439-8.964491-112.801684-22.635789-153.56407-38.894035l-0.916211-0.359299a385.778526 385.778526 0 0 1-21.090807-9.233965c-0.844351-0.395228-1.742596-0.790456-2.586947-1.203649-5.982316-2.874386-11.497544-5.838596-16.797193-8.820772-1.311439-0.754526-2.694737-1.491088-3.970246-2.245614-4.599018-2.694737-8.802807-5.461333-12.826947-8.227929-1.598877-1.113825-3.233684-2.209684-4.724772-3.323509a149.629754 149.629754 0 0 1-14.120421-11.892772 98.968702 98.968702 0 0 1-10.473544-12.036491 61.691509 61.691509 0 0 1-6.700912-11.964632 44.696702 44.696702 0 0 1-2.048-6.395509C54.631298 392.084211 53.894737 389.15593 53.894737 386.245614v-147.438035c2.155789 1.958175 4.616982 3.880421 6.952421 5.820632 1.293474 1.077895 2.497123 2.155789 3.844491 3.233684zM467.087719 35.929825c243.496421 0 413.192982 70.997333 413.192983 134.736842S710.58414 305.403509 467.087719 305.403509 53.894737 234.406175 53.894737 170.666667 223.591298 35.929825 467.087719 35.929825z m0 916.210526c-234.208561 0-402.432-66.52407-412.618105-128.664702A16.671439 16.671439 0 0 0 53.894737 821.122246v-151.156772l1.024 0.862315c4.16786 3.682807 8.443509 7.347649 13.258105 10.868772C135.940491 732.806737 271.180351 772.491228 467.087719 772.491228c14.318035 0 28.672-0.341333 43.008-0.844351 4.293614-0.143719 8.551298-0.377263 12.844913-0.574877 5.640982-0.251509 11.317895-0.413193 16.940912-0.754526-0.610807 6.826667-0.934175 13.545544-0.934176 20.138666 0 7.635088 0.431158 15.216281 1.149755 22.725614 0.233544 2.425263 0.682667 4.796632 0.98807 7.185965 0.646737 5.066105 1.329404 10.114246 2.317474 15.090527 0.520982 2.640842 1.203649 5.209825 1.814456 7.832701 1.09586 4.688842 2.227649 9.359719 3.592982 13.976702 0.736561 2.479158 1.598877 4.904421 2.425263 7.365614a192.655719 192.655719 0 0 0 7.886597 20.354246 231.693474 231.693474 0 0 0 21.414175 38.193403c2.982175 4.293614 6.126035 8.461474 9.395649 12.557474 1.347368 1.706667 2.694737 3.413333 4.096 5.066105 1.131789 1.347368 2.155789 2.784561 3.323509 4.113965A1154.928281 1154.928281 0 0 1 467.087719 952.140351z m305.403509 35.929824a196.787649 196.787649 0 0 1-140.108351-58.421894c-1.940211-1.958175-3.700772-4.078035-5.551158-6.10807-2.712702-2.964211-5.443368-5.928421-7.958456-9.036351-2.137825-2.640842-4.096-5.407439-6.10807-8.156071a185.326035 185.326035 0 0 1-5.802667-8.281824 207.333053 207.333053 0 0 1-14.749193-27.055158 178.930526 178.930526 0 0 1-4.02414-9.826807 195.817544 195.817544 0 0 1-3.341474-9.090246c-1.221614-3.736702-2.245614-7.545263-3.251649-11.353824-0.736561-2.802526-1.562947-5.587088-2.173754-8.443509-0.970105-4.491228-1.652772-9.054316-2.299509-13.635368-0.341333-2.317474-0.808421-4.599018-1.05993-6.970386A198.69193 198.69193 0 0 1 574.877193 790.45614a198.386526 198.386526 0 0 1 6.826667-50.643087c0.341333-1.311439 0.646737-2.622877 1.006035-3.934316 1.131789-3.952281 2.461193-7.814737 3.808561-11.641263 0.754526-2.101895 1.491088-4.203789 2.299509-6.28772 1.257544-3.179789 2.622877-6.323649 4.042105-9.413614a191.236491 191.236491 0 0 1 13.509614-24.737684c1.203649-1.886316 2.389333-3.772632 3.664842-5.623017 2.515088-3.628912 5.19186-7.150035 7.940492-10.599299 0.95214-1.185684 1.832421-2.407298 2.802526-3.575017 3.736702-4.491228 7.653053-8.820772 11.784982-12.970667l0.305404-0.323368a200.66807 200.66807 0 0 1 28.510316-23.58793c1.167719-0.790456 2.407298-1.509053 3.592982-2.281544 3.808561-2.479158 7.688982-4.868491 11.677193-7.09614 1.832421-1.024 3.700772-1.940211 5.551158-2.892351a190.39214 190.39214 0 0 1 17.192421-7.868632 204.332912 204.332912 0 0 1 17.587649-6.090105c3.539088-1.041965 7.150035-1.922246 10.760983-2.766597 2.407298-0.556912 4.814596-1.149754 7.257824-1.634807 3.988211-0.772491 8.048281-1.329404 12.126316-1.86835 2.137825-0.269474 4.239719-0.646737 6.377544-0.844351 6.269754-0.574877 12.575439-0.934175 18.988912-0.934176 6.126035 0 12.162246 0.377263 18.144561 0.916211 1.868351 0.161684 3.718737 0.413193 5.587088 0.646737 4.203789 0.503018 8.353684 1.149754 12.467649 1.90428 1.994105 0.377263 3.988211 0.736561 5.982316 1.16772 4.383439 0.95214 8.695018 2.101895 12.952702 3.341473 1.437193 0.413193 2.892351 0.754526 4.311579 1.185685 5.263719 1.670737 10.401684 3.592982 15.467789 5.676912 2.425263 1.006035 4.778667 2.137825 7.168 3.233684 2.766596 1.275509 5.497263 2.568982 8.192 3.952281a200.614175 200.614175 0 0 1 14.551579 8.371649c2.712702 1.706667 5.425404 3.395368 8.066246 5.245754C936.510877 664.234667 970.105263 723.464982 970.105263 790.45614c0 108.957193-88.656842 197.614035-197.614035 197.614035z" fill="" p-id="1127"></path></svg>