<?xml version="1.0" standalone="no"?><!DOCTYPE svg PUBLIC "-//W3C//DTD SVG 1.1//EN" "http://www.w3.org/Graphics/SVG/1.1/DTD/svg11.dtd"><svg t="1562922294195" class="icon" viewBox="0 0 1024 1024" version="1.1" xmlns="http://www.w3.org/2000/svg" p-id="4401" xmlns:xlink="http://www.w3.org/1999/xlink" width="200" height="200"><defs><style type="text/css"></style></defs><path d="M177.436444 330.524444c93.866667 36.408889 218.794667 56.490667 351.914667 56.490667 272.270222 0 493.795556-84.024889 493.795556-187.278222 0-103.310222-221.525333-187.335111-493.795556-187.335111S35.555556 96.426667 35.555556 199.736889c0 48.810667 50.403556 95.288889 141.880888 130.844444z" p-id="4402"></path><path d="M529.351111 456.533333c-230.684444 0-433.493333-61.952-493.795555-148.992v95.061334c0 103.310222 221.525333 187.335111 493.795555 187.335111s493.795556-84.024889 493.795556-187.335111v-95.004445c-60.302222 87.04-263.111111 148.935111-493.795556 148.935111z" p-id="4403"></path><path d="M529.351111 659.456c-230.684444 0-433.493333-62.008889-493.795555-149.048889v95.118222c0 103.253333 221.525333 187.278222 493.795555 187.278223s493.795556-84.024889 493.795556-187.278223V510.407111c-60.302222 87.04-263.111111 149.048889-493.795556 149.048889z" p-id="4404"></path><path d="M529.351111 862.321778c-230.684444 0-433.493333-61.952-493.795555-149.048889v95.118222c0 103.310222 221.525333 187.335111 493.795555 187.335111s493.795556-84.024889 493.795556-187.335111V713.386667c-60.302222 87.04-263.111111 149.048889-493.795556 149.048889z" p-id="4405"></path></svg>