<?xml version="1.0" standalone="no"?><!DOCTYPE svg PUBLIC "-//W3C//DTD SVG 1.1//EN" "http://www.w3.org/Graphics/SVG/1.1/DTD/svg11.dtd"><svg t="1567147275560" class="icon" viewBox="0 0 1024 1024" version="1.1" xmlns="http://www.w3.org/2000/svg" p-id="22330" width="128" height="128" xmlns:xlink="http://www.w3.org/1999/xlink"><defs><style type="text/css"></style></defs><path d="M512 512m-512 0a512 512 0 1 0 1024 0 512 512 0 1 0-1024 0Z" fill="#FF575E" p-id="22331"></path><path d="M329.874286 739.693714a37.083429 37.083429 0 0 1-26.331429-63.414857l160.256-159.158857-156.964571-159.451429a37.083429 37.083429 0 1 1 52.370285-51.931428l156.16 157.988571 159.085715-158.354285a37.302857 37.302857 0 0 1 52.662857 52.662857l-158.72 159.085714 158.72 160.256a37.083429 37.083429 0 1 1-52.662857 51.931429l-159.085715-160.256-159.158857 159.890285a37.083429 37.083429 0 0 1-26.331428 10.752z" fill="#FFFFFF" p-id="22332"></path></svg>