<?xml version="1.0" standalone="no"?><!DOCTYPE svg PUBLIC "-//W3C//DTD SVG 1.1//EN" "http://www.w3.org/Graphics/SVG/1.1/DTD/svg11.dtd"><svg t="1563520003947" class="icon" viewBox="0 0 1024 1024" version="1.1" xmlns="http://www.w3.org/2000/svg" p-id="8614" xmlns:xlink="http://www.w3.org/1999/xlink" width="200" height="200"><defs><style type="text/css"></style></defs><path d="M758.4 311.2c-65.6 0-119.2-53.6-119.2-119.2S692 72 758.4 72s119.2 53.6 119.2 119.2-53.6 120-119.2 120z m0-207.2c-48 0-87.2 39.2-87.2 87.2s39.2 87.2 87.2 87.2 87.2-39.2 87.2-87.2S806.4 104 758.4 104zM1004 604.8H512c-8.8 0-16-7.2-16-16 0-144.8 117.6-262.4 262.4-262.4s262.4 117.6 262.4 262.4c-0.8 8.8-8 16-16.8 16z m-475.2-32h459.2c-8-119.2-108-214.4-229.6-214.4S536.8 453.6 528.8 572.8zM228 1020h-208c-8.8 0-16-7.2-16-16v-138.4c0-24 20-44 44-44h152c24 0 44 20 44 44v138.4c0 8.8-7.2 16-16 16z m-192-32h176v-122.4c0-6.4-5.6-12-12-12H48c-6.4 0-12 5.6-12 12v122.4zM124 798.4c-42.4 0-77.6-34.4-77.6-77.6s34.4-77.6 77.6-77.6 77.6 34.4 77.6 77.6-35.2 77.6-77.6 77.6z m0-123.2c-24.8 0-45.6 20.8-45.6 45.6s20.8 45.6 45.6 45.6 45.6-20.8 45.6-45.6-20.8-45.6-45.6-45.6zM486.4 1020h-208c-8.8 0-16-7.2-16-16v-138.4c0-24 20-44 44-44h152.8c24 0 44 20 44 44v138.4c-0.8 8.8-8 16-16.8 16z m-192-32h176v-122.4c0-6.4-5.6-12-12-12h-152c-6.4 0-12 5.6-12 12v122.4zM382.4 798.4c-42.4 0-77.6-34.4-77.6-77.6s34.4-77.6 77.6-77.6 77.6 34.4 77.6 77.6-34.4 77.6-77.6 77.6z m0-123.2c-24.8 0-45.6 20.8-45.6 45.6s20.8 45.6 45.6 45.6 45.6-20.8 45.6-45.6-20-45.6-45.6-45.6zM745.6 1020h-208c-8.8 0-16-7.2-16-16v-138.4c0-24 20-44 44-44h152.8c24 0 44 20 44 44v138.4c-0.8 8.8-8 16-16.8 16z m-192-32h176v-122.4c0-6.4-5.6-12-12-12H564.8c-6.4 0-12 5.6-12 12v122.4zM641.6 798.4c-42.4 0-77.6-34.4-77.6-77.6s34.4-77.6 77.6-77.6 77.6 34.4 77.6 77.6-35.2 77.6-77.6 77.6z m0-123.2c-24.8 0-45.6 20.8-45.6 45.6s20.8 45.6 45.6 45.6 45.6-20.8 45.6-45.6-20.8-45.6-45.6-45.6zM1004 1020h-208c-8.8 0-16-7.2-16-16v-138.4c0-24 20-44 44-44h152c24 0 44 20 44 44v138.4c0 8.8-7.2 16-16 16z m-192-32h176v-122.4c0-6.4-5.6-12-12-12h-152c-6.4 0-12 5.6-12 12v122.4zM900 798.4c-42.4 0-77.6-34.4-77.6-77.6s34.4-77.6 77.6-77.6 77.6 34.4 77.6 77.6-34.4 77.6-77.6 77.6z m0-123.2c-24.8 0-45.6 20.8-45.6 45.6s20.8 45.6 45.6 45.6 45.6-20.8 45.6-45.6-20.8-45.6-45.6-45.6zM410.4 398.4c-4 0-8-1.6-11.2-4.8L300 299.2h-280c-8.8 0-16-7.2-16-16V20c0-8.8 7.2-16 16-16h452.8c8.8 0 16 7.2 16 16v263.2c0 8.8-7.2 16-16 16h-46.4v83.2c0 6.4-4 12-9.6 14.4-2.4 0.8-4.8 1.6-6.4 1.6zM36 267.2h270.4c4 0 8 1.6 11.2 4.8l76.8 73.6v-61.6c0-8.8 7.2-16 16-16h46.4v-232H36v231.2z" p-id="8615"></path><path d="M131.2 186.4c-20 0-36.8-16.8-36.8-36.8s16.8-36.8 36.8-36.8 36.8 16.8 36.8 36.8-16.8 36.8-36.8 36.8z m0-57.6c-11.2 0-20.8 9.6-20.8 20.8s9.6 20.8 20.8 20.8 20.8-9.6 20.8-20.8-9.6-20.8-20.8-20.8zM246.4 186.4c-20 0-36.8-16.8-36.8-36.8s16.8-36.8 36.8-36.8 36.8 16.8 36.8 36.8-16.8 36.8-36.8 36.8z m0-57.6c-11.2 0-20.8 9.6-20.8 20.8s9.6 20.8 20.8 20.8 20.8-9.6 20.8-20.8-9.6-20.8-20.8-20.8zM361.6 186.4c-20 0-36.8-16.8-36.8-36.8s16.8-36.8 36.8-36.8c20 0 36.8 16.8 36.8 36.8s-16 36.8-36.8 36.8z m0-57.6c-11.2 0-20.8 9.6-20.8 20.8s9.6 20.8 20.8 20.8c11.2 0 20.8-9.6 20.8-20.8s-9.6-20.8-20.8-20.8z" p-id="8616"></path></svg>