<?xml version="1.0" standalone="no"?><!DOCTYPE svg PUBLIC "-//W3C//DTD SVG 1.1//EN" "http://www.w3.org/Graphics/SVG/1.1/DTD/svg11.dtd"><svg t="1563515314892" class="icon" viewBox="0 0 1024 1024" version="1.1" xmlns="http://www.w3.org/2000/svg" p-id="5598" xmlns:xlink="http://www.w3.org/1999/xlink" width="200" height="200"><defs><style type="text/css"></style></defs><path d="M914.2 107.8 651.7 107.8 292.9 442.3 292.9 107.8 54 107.8 54 203.4 149.6 203.4 149.6 920.2Z" p-id="5599"></path><path d="M997.9 581l-113.5-0.3c-0.4-19.8-5-34.3-13.7-43.3-8.7-9.1-22.5-13.6-41.3-13.6-21.5 0-36.4 5.2-44.8 15.5-8.4 10.3-12.6 31.1-12.6 62.2l0 48c14.9-8.5 30.9-14.9 47.9-19.3 17-4.3 35.1-6.5 54.4-6.5 21 0 39.8 2.8 56 8.4 16.3 5.5 30.2 13.9 41.8 25 12.6 12.2 21.7 26.7 27 43.4s8 42.2 8 76.4c0 63-13.6 106.9-40.7 131.8-27.2 25-73.7 37.4-139.6 37.4-60.5 0-104.3-11.2-131.6-33.6s-40.9-58.5-40.9-108.1L654.3 574.1c0-49.9 13.7-86.5 41.3-109.9 27.5-23.4 70.4-35.1 128.6-35.1 29.2 0 58.3 3.2 87.5 9.7 29.1 6.4 57.9 16.1 86.5 28.9L998.2 581zM826.7 849.8c18.8 0 32.8-5.6 42-16.8 9.1-11.2 13.8-28.3 13.8-51.4 0-21.1-4.7-37.1-14.1-48-9.4-10.9-23.3-16.3-41.6-16.3-18.2 0-31.8 5.4-40.9 16.2-9.2 10.7-13.8 26.8-13.8 48.2 0 23.5 4.4 40.8 13.3 51.8C794.1 844.3 807.9 849.8 826.7 849.8z" p-id="5600"></path></svg>