<?xml version="1.0" standalone="no"?><!DOCTYPE svg PUBLIC "-//W3C//DTD SVG 1.1//EN" "http://www.w3.org/Graphics/SVG/1.1/DTD/svg11.dtd"><svg t="1565939043633" class="icon" viewBox="0 0 1024 1024" version="1.1" xmlns="http://www.w3.org/2000/svg" p-id="4055" xmlns:xlink="http://www.w3.org/1999/xlink" width="200" height="200"><defs><style type="text/css"></style></defs><path d="M504.6272 884.9408c3.072 2.6624 6.3488 3.6864 9.8304 3.6864 8.8064 0 18.2272-6.7584 25.8048-12.288l34.2016-24.576c4.7104-1.024 9.0112-2.4576 12.6976-4.096 1.6384 0.8192 3.4816 1.8432 5.12 3.072l9.4208 5.7344 14.1312-19.2512-9.6256-5.7344c-0.2048-0.2048-0.6144-0.4096-0.8192-0.6144 4.096-9.4208 2.4576-20.2752-4.5056-30.72-9.8304-15.1552-31.9488-30.3104-53.6576-28.672-16.7936 1.2288-23.9616 8.8064-27.0336 14.9504-6.9632 14.1312 2.4576 32.1536 9.4208 42.5984-0.4096 0.6144-1.024 1.024-1.2288 1.6384-3.2768-0.2048-6.5536-0.6144-10.24-1.024-38.0928-4.3008-45.4656-11.8784-46.8992-13.9264-2.048-3.4816 1.6384-10.4448 4.7104-16.7936 4.5056-9.0112 10.24-20.0704 3.4816-30.5152-6.7584-10.6496-22.528-13.1072-35.2256-13.9264-26.0096-1.8432-37.888 7.5776-43.2128 15.7696-19.6608 30.5152 22.9376 91.5456 31.5392 103.6288l21.2992-12.9024c-17.6128-23.9616-39.5264-65.536-30.9248-78.848 2.8672-4.5056 12.0832-4.9152 19.2512-4.3008 10.0352 0.8192 13.9264 2.4576 14.7456 2.048-0.4096 2.048-2.6624 6.5536-4.096 9.6256-5.12 10.0352-12.0832 23.9616-3.8912 37.6832 7.9872 13.1072 27.4432 21.0944 62.6688 25.3952-16.7936 23.552-11.8784 27.648-6.9632 32.3584z m257.024-153.1904v205.824H95.0272V86.4256h666.4192v377.856l19.6608-16.9984v1.8432l50.9952-46.4896V20.48H24.3712v983.04h807.7312V676.4544l-70.4512 55.296zM866.304 412.672l96.256 87.8592 45.056-41.1648-96.256-87.6544-45.056 40.96zM637.1328 621.3632l96.256 87.6544L952.1152 509.952l-96.256-87.6544-218.7264 199.0656z m-54.4768 137.4208l123.4944-24.7808 10.4448-9.6256-96.4608-87.6544-10.4448 9.4208-27.0336 112.64z m-39.3216 37.2736s1.2288-1.024 5.9392-1.4336h1.2288c9.216 0 22.3232 7.7824 28.672 17.408 0.8192 1.4336 2.4576 4.096 2.8672 6.9632l-1.8432-0.8192-16.9984 12.0832c-1.024 0.2048-2.048 0.4096-3.072 0.4096l0.8192-0.8192-5.7344-7.168c-8.3968-10.6496-13.7216-23.7568-11.8784-26.624z m92.9792 92.5696l2.2528-23.1424c-66.56-5.3248-105.6768 43.4176-107.1104 45.6704l20.6848 13.312c0.4096-0.4096 31.744-39.936 84.1728-35.84z m41.5744 4.7104l3.2768-23.552-25.3952-2.8672-3.2768 23.552 25.3952 2.8672zM258.2528 136.6016h340.1728v46.4896H258.2528V136.6016z m-103.8336 120.0128h531.456V282.624H154.4192v-26.0096z m0 78.2336h531.456v26.4192H154.4192v-26.4192z m0 80.4864h531.456v26.2144H154.4192v-26.2144z m0 81.7152h531.456v26.0096H154.4192v-26.0096z m0 0" p-id="4056"></path></svg>