<?xml version="1.0" standalone="no"?><!DOCTYPE svg PUBLIC "-//W3C//DTD SVG 1.1//EN" "http://www.w3.org/Graphics/SVG/1.1/DTD/svg11.dtd"><svg t="1585710870137" class="icon" viewBox="0 0 1024 1024" version="1.1" xmlns="http://www.w3.org/2000/svg" p-id="1146" xmlns:xlink="http://www.w3.org/1999/xlink" width="200" height="200"><defs><style type="text/css"></style></defs><path d="M728.069293 296.157756 252.590989 296.157756c-15.434312 0-27.973873 12.511368-27.973873 27.969845 0 15.462504 12.53956 27.973873 27.973873 27.973873l475.478304 0c15.462504 0 27.999044-12.511368 27.999044-27.973873C756.067331 308.668117 743.531798 296.157756 728.069293 296.157756zM728.069293 436.010002 252.590989 436.010002c-15.434312 0-27.973873 12.511368-27.973873 27.973873 0 15.458477 12.53956 27.969845 27.973873 27.969845l475.478304 0c15.462504 0 27.999044-12.511368 27.999044-27.969845C756.067331 448.52137 743.531798 436.010002 728.069293 436.010002zM983.685424 770.515413c-4.971925-4.913526-11.798504-11.687748-12.971508-15.40612-1.310945-4.205696 0.355425-13.822313 1.71772-21.548027 2.790037-15.927678 5.899252-33.98388-4.395995-48.733521-10.382845-14.884561-28.682709-17.454094-43.375965-19.50106-7.429695-1.038083-16.634501-2.320836-19.911863-4.838011-3.195806-2.401385-7.156833-11.032276-10.324446-17.970618-6.449003-14.07101-14.453621-31.576454-31.443547-37.3136-3.417317-1.148839-7.019898-1.750947-10.78962-1.750947-12.45297 0-23.711791 6.339254-34.551755 12.400612-6.74603 3.798921-15.162457 8.496977-19.641015 8.496977-4.425194 0-12.840615-4.698056-19.586644-8.496977-10.841977-6.062365-22.070593-12.400612-34.552762-12.400612-3.713337 0-7.377337 0.603115-10.788613 1.775112-16.965761 5.712981-24.993537 23.219432-31.438513 37.289435-3.171641 6.938342-7.133675 15.569233-10.330487 17.970618-3.30052 2.517175-12.481162 3.798921-19.883671 4.838011-14.721448 2.046967-33.050512 4.616499-43.432349 19.50106-10.267055 14.74964-7.129647 32.805842-4.368809 48.733521 1.339137 7.726721 3.0045 17.343338 1.694562 21.548027-1.148839 3.717364-7.951253 10.492594-12.946336 15.37692-10.875204 10.793648-24.506212 24.256508-24.506212 43.131295 0 18.878815 13.631008 32.318517 24.506212 43.10713 4.995083 4.941719 11.798504 11.687748 12.946336 15.40612 1.310945 4.17549-0.355425 13.822313-1.694562 21.524869-2.760838 15.950836-5.898245 33.978846 4.368809 48.757685 10.381838 14.884561 28.710901 17.424894 43.432349 19.50106 7.402509 1.038083 16.583151 2.320836 19.883671 4.837004 3.196813 2.402392 7.15784 11.033283 10.330487 17.970618 6.443969 14.041811 14.448586 31.525103 31.438513 37.289435 3.411276 1.143804 7.075276 1.745913 10.788613 1.745913 12.482169 0 23.682592-6.311062 34.552762-12.37242 6.74603-3.797914 15.162457-8.526176 19.586644-8.526176 4.478558 0 12.894986 4.727255 19.641015 8.526176 10.840971 6.062365 22.098785 12.37242 34.551755 12.37242 3.769722 0 7.372303-0.603115 10.78962-1.745913 16.98892-5.765338 24.993537-23.247624 31.443547-37.289435 3.167613-6.937335 7.12864-15.568226 10.324446-17.970618 3.277362-2.516168 12.482169-3.797914 19.911863-4.837004 14.693256-2.077173 32.994127-4.616499 43.375965-19.50106 10.296254-14.77884 7.156833-32.806849 4.395995-48.757685-1.363302-7.702556-3.028665-17.319173-1.71772-21.524869 1.173004-3.717364 7.999583-10.464401 12.971508-15.40612 10.927561-10.78962 24.477013-24.228316 24.477013-43.10713C1008.16143 794.743729 994.611978 781.279862 983.685424 770.515413zM939.903691 827.932182c-9.726365 9.669981-16.855006 17.32018-20.190766 28.055429-3.329719 10.841977-1.884861 21.496677 0.492359 35.424711 0.928334 5.301171 2.62189 15.050695 1.776119 18.003845-2.704453 1.5828-11.010125 2.759831-15.54104 3.387111-11.065503 1.554607-23.630235 3.305555-33.734176 11.009118-9.669981 7.372303-14.69829 18.434785-19.587651 29.171041-1.966417 4.262081-5.405886 11.802532-7.923061 14.77884-3.138414-0.956527-9.147415-4.343638-13.056085-6.53056-9.941836-5.62639-21.223815-11.96061-34.141959-11.96061-12.893979 0-24.174952 6.362412-34.226536 12.019009-3.798921 2.157723-9.807922 5.516641-12.918144 6.473168-2.517175-2.976308-5.956644-10.515752-7.923061-14.831197-4.861169-10.682892-9.941836-21.745374-19.668201-29.176075-9.941836-7.592808-22.453204-9.396112-33.653627-10.979919-4.507758-0.598081-12.726838-1.775112-15.510834-3.329719-0.822613-3.225005 0.818585-12.813429 1.775112-18.166958 2.373193-13.873663 3.823086-24.558569 0.406776-35.375375-3.277362-10.649665-10.435202-18.271672-20.104176-27.969845-3.219971-3.167613-11.746147-11.687748-11.746147-14.314672 0-2.62189 8.526176-11.143032 11.746147-14.310645 9.396112-9.343755 16.855006-17.347365 20.104176-27.973873 3.41631-10.841977 1.966417-21.519835-0.435975-35.481096-0.928334-5.324329-2.62189-15.075866-1.803304-18.027003 2.731639-1.583807 11.03731-2.760838 15.568226-3.387111 11.090674-1.554607 23.658427-3.330726 33.710012-10.951726 9.669981-7.377337 14.693256-18.438812 19.611816-29.227426 1.966417-4.262081 5.405886-11.803538 7.923061-14.77884 3.167613 0.956527 9.147415 4.343638 12.946336 6.473168 9.994193 5.62639 21.276172 12.019009 34.198344 12.019009 12.946336 0 24.257515-6.363419 34.252715-12.019009 3.797914-2.128523 9.806915-5.516641 12.945329-6.473168 2.517175 2.975301 5.956644 10.515752 7.923061 14.77884 4.889361 10.731222 9.918678 21.821896 19.640009 29.227426 10.023392 7.646172 22.592152 9.397119 33.653627 10.951726 4.507758 0.626273 12.755031 1.775112 15.540033 3.358919 0.822613 3.277362-0.841743 12.841621-1.745913 18.085401-2.37722 13.873663-3.851278 24.553535-0.492359 35.39954 3.335761 10.707057 10.793648 18.711674 20.190766 28.02623 3.195806 3.167613 11.716948 11.687748 11.716948 14.310645C951.619631 816.244433 943.123661 824.765575 939.903691 827.932182zM560.271367 967.460215 252.562797 967.460215c-108.112679 0-195.795963-87.655092-195.795963-195.795963L56.766834 268.187911c0-108.141878 87.683284-195.79697 195.795963-195.79697l503.50554 0c108.112679 0 195.795963 87.655092 195.795963 195.79697l0 279.710533c0 15.458477 12.511368 27.968838 27.969845 27.968838 15.434312 0 27.973873-12.511368 27.973873-27.968838 0-1.313966-0.097666-2.602759-0.272862-3.867388L1007.535156 240.213032c0-123.571156-100.195659-223.765808-223.770843-223.765808L224.344255 16.447223c-123.600355 0-223.765808 100.194652-223.765808 223.765808l0 559.420059c0 123.57619 100.165453 223.770843 223.765808 223.770843l335.927112 0c15.434312 0 27.999044-12.511368 27.999044-27.973873C588.269405 979.970577 575.705679 967.460215 560.271367 967.460215zM797.99743 715.366116c-54.250162 0-98.228235 44.007272-98.228235 98.2524 0 54.250162 43.978073 98.257434 98.228235 98.257434 54.303526 0 98.280592-44.007272 98.280592-98.257434C896.278022 759.343182 852.300956 715.366116 797.99743 715.366116zM797.99743 855.304953c-22.99792 0-41.657237-18.659317-41.657237-41.686437 0-23.022085 18.659317-41.681402 41.657237-41.681402 23.052291 0 41.739801 18.659317 41.739801 41.681402C839.73723 836.645636 821.049721 855.304953 797.99743 855.304953z" p-id="1147"></path></svg>