<?xml version="1.0" standalone="no"?><!DOCTYPE svg PUBLIC "-//W3C//DTD SVG 1.1//EN" "http://www.w3.org/Graphics/SVG/1.1/DTD/svg11.dtd"><svg t="1565938811147" class="icon" viewBox="0 0 1024 1024" version="1.1" xmlns="http://www.w3.org/2000/svg" p-id="2581" xmlns:xlink="http://www.w3.org/1999/xlink" width="200" height="200"><defs><style type="text/css"></style></defs><path d="M789.344 627.2l8.544 12.8 46.944 85.344 8.544 12.8-8.544 12.8-46.944 85.344-8.544 12.8h-132.256l-8.544-12.8-46.944-85.344-4.256-12.8 8.544-12.8L652.832 640l8.544-12.8h128z m21.312-132.256c-8.544 0-12.8 4.256-17.056 12.8l-21.344 34.144h-98.144l-21.344-34.144c-4.256-8.544-12.8-12.8-17.056-12.8s-8.544 0-12.8 4.256l-59.744 38.4c-8.544 4.256-12.8 17.056-8.544 29.856l21.344 34.144-46.944 85.344h-38.4c-12.8 0-21.344 8.544-21.344 21.344v68.256c0 12.8 8.544 21.344 21.344 21.344h38.4l46.944 85.344-21.344 34.144a22.496 22.496 0 0 0 8.544 29.856l59.744 38.4c4.256 0 8.544 4.256 12.8 4.256 8.544 0 12.8-4.256 17.056-12.8l21.344-34.144h98.144l21.344 34.144c4.256 8.544 12.8 12.8 17.056 12.8s8.544 0 12.8-4.256l59.744-38.4c8.544-4.256 12.8-17.056 8.544-29.856l-21.344-34.144 46.944-85.344h38.4c12.8 0 21.344-8.544 21.344-21.344v-68.256c0-12.8-8.544-21.344-21.344-21.344h-38.4L870.4 601.6l21.344-34.144a22.496 22.496 0 0 0-8.544-29.856l-59.744-38.4c-4.256-4.256-8.544-4.256-12.8-4.256z" p-id="2582"></path><path d="M810.656 738.144L768 814.944h-85.344L640 738.144l42.656-72.544H768z" p-id="2583"></path><path d="M426.656 384H768V298.656H426.656V384z m0 170.656h17.056c21.344-34.144 51.2-64 85.344-85.344h-102.4v85.344zM85.344 85.344v853.344h358.4c-17.056-25.6-29.856-55.456-42.656-85.344h-230.4V170.688h682.656v260.256c29.856 12.8 59.744 29.856 85.344 51.2v-396.8H85.344z m256 213.312H256V384h85.344V298.656z m0 170.688H256v85.344h85.344v-85.344z m-85.344 256h85.344V640H256v85.344z" p-id="2584"></path></svg>