<?xml version="1.0" standalone="no"?><!DOCTYPE svg PUBLIC "-//W3C//DTD SVG 1.1//EN" "http://www.w3.org/Graphics/SVG/1.1/DTD/svg11.dtd"><svg t="1561520033908" class="icon" viewBox="0 0 1024 1024" version="1.1" xmlns="http://www.w3.org/2000/svg" p-id="3449" xmlns:xlink="http://www.w3.org/1999/xlink" width="48" height="48"><defs><style type="text/css"></style></defs><path d="M96 70.4h246.4c35.2 0 64 28.8 64 64v259.2c0 35.2-28.8 64-64 64H96c-35.2 0-64-28.8-64-64V134.4c0-35.2 28.8-64 64-64z m0 502.4h246.4c35.2 0 64 28.8 64 64V896c0 35.2-28.8 64-64 64H96c-35.2 0-64-28.8-64-64v-259.2c0-35.2 28.8-64 64-64z m496 0h246.4c35.2 0 64 28.8 64 64V896c0 35.2-28.8 64-64 64h-246.4c-35.2 0-64-28.8-64-64v-259.2c0-35.2 28.8-64 64-64zM739.2 128l-160 160 150.4 150.4 160-160L739.2 128z m44.8-48l150.4 150.4c25.6 25.6 25.6 64 0 89.6l-160 160c-25.6 25.6-64 25.6-89.6 0l-150.4-150.4c-25.6-25.6-25.6-64 0-89.6l160-160c22.4-22.4 64-22.4 89.6 0z" p-id="3450"></path></svg>