<?xml version="1.0" standalone="no"?><!DOCTYPE svg PUBLIC "-//W3C//DTD SVG 1.1//EN" "http://www.w3.org/Graphics/SVG/1.1/DTD/svg11.dtd"><svg t="1570861337113" class="icon" viewBox="0 0 1024 1024" version="1.1" xmlns="http://www.w3.org/2000/svg" p-id="3222" xmlns:xlink="http://www.w3.org/1999/xlink" width="200" height="200"><defs><style type="text/css"></style></defs><path d="M170.666667 298.666667C98.133333 298.666667 42.666667 243.2 42.666667 170.666667s55.466667-128 128-128 128 55.466667 128 128S243.2 298.666667 170.666667 298.666667zM170.666667 128C145.066667 128 128 145.066667 128 170.666667s17.066667 42.666667 42.666667 42.666667 42.666667-17.066667 42.666667-42.666667S196.266667 128 170.666667 128z" p-id="3223"></path><path d="M170.666667 320C89.6 320 21.333333 251.733333 21.333333 170.666667S89.6 21.333333 170.666667 21.333333 320 89.6 320 170.666667 251.733333 320 170.666667 320zM170.666667 64C110.933333 64 64 110.933333 64 170.666667S110.933333 277.333333 170.666667 277.333333 277.333333 230.4 277.333333 170.666667 230.4 64 170.666667 64zM170.666667 234.666667C136.533333 234.666667 106.666667 204.8 106.666667 170.666667S136.533333 106.666667 170.666667 106.666667 234.666667 136.533333 234.666667 170.666667 204.8 234.666667 170.666667 234.666667zM170.666667 149.333333C157.866667 149.333333 149.333333 157.866667 149.333333 170.666667S157.866667 192 170.666667 192 192 183.466667 192 170.666667 183.466667 149.333333 170.666667 149.333333z" p-id="3224"></path><path d="M170.666667 981.333333c-72.533333 0-128-55.466667-128-128s55.466667-128 128-128 128 55.466667 128 128S243.2 981.333333 170.666667 981.333333zM170.666667 810.666667c-25.6 0-42.666667 17.066667-42.666667 42.666667s17.066667 42.666667 42.666667 42.666667 42.666667-17.066667 42.666667-42.666667S196.266667 810.666667 170.666667 810.666667z" p-id="3225"></path><path d="M170.666667 1002.666667c-81.066667 0-149.333333-68.266667-149.333333-149.333333s68.266667-149.333333 149.333333-149.333333 149.333333 68.266667 149.333333 149.333333S251.733333 1002.666667 170.666667 1002.666667zM170.666667 746.666667c-59.733333 0-106.666667 46.933333-106.666667 106.666667s46.933333 106.666667 106.666667 106.666667 106.666667-46.933333 106.666667-106.666667S230.4 746.666667 170.666667 746.666667zM170.666667 917.333333c-34.133333 0-64-29.866667-64-64s29.866667-64 64-64 64 29.866667 64 64S204.8 917.333333 170.666667 917.333333zM170.666667 832c-12.8 0-21.333333 8.533333-21.333333 21.333333s8.533333 21.333333 21.333333 21.333333 21.333333-8.533333 21.333333-21.333333S183.466667 832 170.666667 832z" p-id="3226"></path><path d="M170.666667 640c-72.533333 0-128-55.466667-128-128s55.466667-128 128-128 128 55.466667 128 128S243.2 640 170.666667 640zM170.666667 469.333333c-25.6 0-42.666667 17.066667-42.666667 42.666667s17.066667 42.666667 42.666667 42.666667 42.666667-17.066667 42.666667-42.666667S196.266667 469.333333 170.666667 469.333333z" p-id="3227"></path><path d="M170.666667 661.333333c-81.066667 0-149.333333-68.266667-149.333333-149.333333S89.6 362.666667 170.666667 362.666667s149.333333 68.266667 149.333333 149.333333S251.733333 661.333333 170.666667 661.333333zM170.666667 405.333333c-59.733333 0-106.666667 46.933333-106.666667 106.666667s46.933333 106.666667 106.666667 106.666667 106.666667-46.933333 106.666667-106.666667S230.4 405.333333 170.666667 405.333333zM170.666667 576c-34.133333 0-64-29.866667-64-64s29.866667-64 64-64 64 29.866667 64 64S204.8 576 170.666667 576zM170.666667 490.666667c-12.8 0-21.333333 8.533333-21.333333 21.333333s8.533333 21.333333 21.333333 21.333333 21.333333-8.533333 21.333333-21.333333S183.466667 490.666667 170.666667 490.666667z" p-id="3228"></path><path d="M938.666667 256 426.666667 256C401.066667 256 384 238.933333 384 213.333333s17.066667-42.666667 42.666667-42.666667l512 0c25.6 0 42.666667 17.066667 42.666667 42.666667S964.266667 256 938.666667 256z" p-id="3229"></path><path d="M938.666667 256 426.666667 256C392.533333 256 362.666667 226.133333 362.666667 192S392.533333 128 426.666667 128l512 0c34.133333 0 64 29.866667 64 64S972.8 256 938.666667 256zM426.666667 170.666667C413.866667 170.666667 405.333333 179.2 405.333333 192S413.866667 213.333333 426.666667 213.333333l512 0c12.8 0 21.333333-8.533333 21.333333-21.333333S951.466667 170.666667 938.666667 170.666667L426.666667 170.666667z" p-id="3230"></path><path d="M682.666667 597.333333l-256 0c-25.6 0-42.666667-17.066667-42.666667-42.666667s17.066667-42.666667 42.666667-42.666667l256 0c25.6 0 42.666667 17.066667 42.666667 42.666667S708.266667 597.333333 682.666667 597.333333z" p-id="3231"></path><path d="M682.666667 597.333333l-256 0c-34.133333 0-64-29.866667-64-64S392.533333 469.333333 426.666667 469.333333l256 0c34.133333 0 64 29.866667 64 64S716.8 597.333333 682.666667 597.333333zM426.666667 512c-12.8 0-21.333333 8.533333-21.333333 21.333333S413.866667 554.666667 426.666667 554.666667l256 0c12.8 0 21.333333-8.533333 21.333333-21.333333S695.466667 512 682.666667 512L426.666667 512z" p-id="3232"></path><path d="M810.666667 938.666667l-384 0c-25.6 0-42.666667-17.066667-42.666667-42.666667s17.066667-42.666667 42.666667-42.666667l384 0c25.6 0 42.666667 17.066667 42.666667 42.666667S836.266667 938.666667 810.666667 938.666667z" p-id="3233"></path><path d="M810.666667 938.666667l-384 0c-34.133333 0-64-29.866667-64-64S392.533333 810.666667 426.666667 810.666667l384 0c34.133333 0 64 29.866667 64 64S844.8 938.666667 810.666667 938.666667zM426.666667 853.333333c-12.8 0-21.333333 8.533333-21.333333 21.333333S413.866667 896 426.666667 896l384 0c12.8 0 21.333333-8.533333 21.333333-21.333333S823.466667 853.333333 810.666667 853.333333L426.666667 853.333333z" p-id="3234"></path></svg>