<?xml version="1.0" standalone="no"?><!DOCTYPE svg PUBLIC "-//W3C//DTD SVG 1.1//EN" "http://www.w3.org/Graphics/SVG/1.1/DTD/svg11.dtd"><svg t="1563516968978" class="icon" viewBox="0 0 1024 1024" version="1.1" xmlns="http://www.w3.org/2000/svg" p-id="1672" xmlns:xlink="http://www.w3.org/1999/xlink" width="200" height="200"><defs><style type="text/css"></style></defs><path d="M957.134328 704.955224h-63.681592V556.577114a63.681592 63.681592 0 0 0-63.681592-63.681592H543.840796V345.154229h77.054726a63.681592 63.681592 0 0 0 63.681592-63.681592V63.681592a63.681592 63.681592 0 0 0-63.681592-63.681592H403.104478a63.681592 63.681592 0 0 0-63.681592 63.681592v217.791045a63.681592 63.681592 0 0 0 63.681592 63.681592h77.054726v147.741293H192.955224a63.681592 63.681592 0 0 0-63.681592 63.681592v148.37811H65.59204a63.681592 63.681592 0 0 0-63.681592 63.681592v191.044776a63.681592 63.681592 0 0 0 63.681592 63.681592h191.044776a63.681592 63.681592 0 0 0 63.681592-63.681592v-191.044776a63.681592 63.681592 0 0 0-63.681592-63.681592H192.955224V556.577114h286.567164v148.37811h-63.681592a63.681592 63.681592 0 0 0-63.681592 63.681592v191.044776a63.681592 63.681592 0 0 0 63.681592 63.681592h191.044776a63.681592 63.681592 0 0 0 63.681592-63.681592v-191.044776a63.681592 63.681592 0 0 0-63.681592-63.681592h-63.681592V556.577114H829.771144v148.37811h-63.681592a63.681592 63.681592 0 0 0-63.681592 63.681592v191.044776a63.681592 63.681592 0 0 0 63.681592 63.681592h191.044776a63.681592 63.681592 0 0 0 63.681592-63.681592v-191.044776a63.681592 63.681592 0 0 0-63.681592-63.681592zM403.104478 63.681592h217.791044v217.791045H403.104478zM256.636816 960.318408H65.59204v-191.044776h191.044776v191.044776z m350.248756 0z m0 0h-191.044776v-191.044776h191.044776z m350.885572 31.840796v-31.840796H766.089552v-191.044776h191.044776v191.044776z" p-id="1673"></path></svg>