<?xml version="1.0" standalone="no"?><!DOCTYPE svg PUBLIC "-//W3C//DTD SVG 1.1//EN" "http://www.w3.org/Graphics/SVG/1.1/DTD/svg11.dtd"><svg t="1567048025171" class="icon" viewBox="0 0 1024 1024" version="1.1" xmlns="http://www.w3.org/2000/svg" p-id="1612" xmlns:xlink="http://www.w3.org/1999/xlink" width="200" height="200"><defs><style type="text/css"></style></defs><path d="M768 614.4a153.6 153.6 0 0 0-144.384 102.4H400.384A149.504 149.504 0 0 0 358.4 655.36L490.496 409.6A153.6 153.6 0 1 0 358.4 256a150.528 150.528 0 0 0 41.472 102.4l-135.168 256H256a153.6 153.6 0 1 0 144.384 204.8h223.232A153.6 153.6 0 1 0 768 614.4z m-256-409.6a51.2 51.2 0 1 1-51.2 51.2 51.2 51.2 0 0 1 51.2-51.2zM256 819.2a51.2 51.2 0 1 1 51.2-51.2 51.2 51.2 0 0 1-51.2 51.2z m512 0a51.2 51.2 0 1 1 51.2-51.2 51.2 51.2 0 0 1-51.2 51.2z" fill="" p-id="1613"></path></svg>