<?xml version="1.0" standalone="no"?><!DOCTYPE svg PUBLIC "-//W3C//DTD SVG 1.1//EN" "http://www.w3.org/Graphics/SVG/1.1/DTD/svg11.dtd"><svg t="1567048142592" class="icon" viewBox="0 0 1025 1024" version="1.1" xmlns="http://www.w3.org/2000/svg" p-id="2186" xmlns:xlink="http://www.w3.org/1999/xlink" width="200.1953125" height="200"><defs><style type="text/css"></style></defs><path d="M1024.064 906.336c0 90.752-76.864 101.792-76.864 101.792s-177.76-0.32-121.152-0.32c-12.928 0-142.528 0-155.456 0 53.088 0-146.144 0.32-146.144 0.32l0-0.928c-43.168-4.672-76.864-39.52-76.864-82.368 0-42.848 33.728-77.728 76.928-82.368 0-0.32-0.064-0.608-0.064-0.928 0-61.344 51.616-111.04 115.296-111.04 0.48 0 0.992 0.064 1.472 0.064 26.592-44.256 76.128-74.112 133.024-74.112 84.896 0 153.728 66.304 153.728 148.064 0 0.16-0.032 0.32-0.032 0.48C981.824 809.664 1024.064 853.216 1024.064 906.336zM703.36 975.648l0-31.872 144.64 0c8.256 0 16.032-7.904 16.032-16.096 0-8.192-7.776-15.744-16.032-15.744l-144.64 0 0-31.872-63.328 44.512L703.36 975.648zM800.032 752.096l0 32-160 0-1.664 20.704 1.664 11.296 160 0 0 32 73.664-43.296L800.032 752.096zM880.608 578.912c-19.008-9.856-39.456-17.376-61.184-21.568 7.968-30.144 12.608-61.344 12.608-93.216 0-188.608-157.12-378.24-350.816-384.448l-1.184 192.448c0 0 89.344 0 96 0 83.328 0.224 96.128 42.112 96 96l0 209.888c-29.088 14.816-54.944 35.584-75.232 61.44-19.584 2.944-38.048 9.088-55.072 17.632-27.968 0.608-52.032-0.704-61.696-0.96 0.256 5.248 0.224 28.384 0.16 51.04-15.872 20.16-27.616 43.616-33.504 69.248-11.168 4.64-21.408 10.848-30.944 17.824-0.224-51.392-0.384-123.104 0.288-138.144-0.096 1.312-84.672 0-96 0-23.872 0-96.288-13.12-96-96-1.856-63.488-0.128-185.92 0-192 1.248-62.144 35.456-96.64 96-96 8.672 0.096 96 0 96 0l0-192c-190.656 18.496-352 195.392-352 384 0 158.784 140.416 335.136 310.56 376.448-10.528 18.656-16.896 39.68-18.144 62.048C146.432 858.944 0.64 669.408 0 464.096 0 225.28 215.296 15.872 448.064 15.872l3.488 0.992c39.936 0 79.904 4.672 119.2 14.688 109.216 28.032 195.488 92.928 254.848 186.496 61.28 96.832 82.816 217.888 61.952 330.4C885.6 558.88 883.072 568.864 880.608 578.912zM320 336.096c-17.664 0-32 14.336-32 32l0 192c0 17.664 14.336 32 32 32l256 0c17.664 0 32-14.336 32-32l0-192c0-17.664-14.336-32-32-32L320 336.096z" p-id="2187"></path></svg>