<?xml version="1.0" standalone="no"?><!DOCTYPE svg PUBLIC "-//W3C//DTD SVG 1.1//EN" "http://www.w3.org/Graphics/SVG/1.1/DTD/svg11.dtd"><svg t="1568946028059" class="icon" viewBox="0 0 1024 1024" version="1.1" xmlns="http://www.w3.org/2000/svg" p-id="8004" xmlns:xlink="http://www.w3.org/1999/xlink" width="200" height="200"><defs><style type="text/css"></style></defs><path d="M832 384l-640 0c-70.656 0-128 57.344-128 128l0 64c0 47.264 25.856 88.064 64 110.24l0 209.76 256 0 0 128 256 0 0-128 256 0 0-209.76c38.112-22.176 64-62.944 64-110.24l0-64c0-70.656-57.376-128-128-128zM320 832l-128 0 0-256-64 0 0-64c0-35.328 28.704-64 64-64l81.728 0c-11.008 18.88-17.728 40.576-17.728 64l0 128c0 47.264 25.856 88.064 64 110.24l0 81.76zM640 704l0-128-64 0 0 384-128 0 0-384-64 0 0 128c-35.328 0-64-28.64-64-64l0-128c0-35.328 28.672-64 64-64l256 0c35.36 0 64 28.672 64 64l0 128c0 35.36-28.64 64-64 64zM896 576l-64 0 0 256-128 0 0-81.76c38.112-22.176 64-62.944 64-110.24l0-128c0-23.424-6.752-45.12-17.76-64l81.76 0c35.36 0 64 28.672 64 64l0 64zM367.68 317.376c35.2 40.512 86.464 66.624 144.32 66.624s109.12-26.112 144.32-66.624c21.824 39.552 63.36 66.624 111.68 66.624 70.624 0 128-57.344 128-128s-57.376-128-128-128c-25.632 0-49.376 7.68-69.376 20.672-19.744-85.12-95.552-148.672-186.624-148.672s-166.912 63.552-186.624 148.672c-20.032-12.992-43.776-20.704-69.376-20.704-70.656 0-128 57.344-128 128s57.344 128 128 128c48.32 0 89.856-27.072 111.68-66.624zM768 192c35.36 0 64 28.608 64 64s-28.64 64-64 64c-35.328 0-64-28.608-64-64s28.672-64 64-64zM512 64c70.624 0 128 57.344 128 128s-57.376 128-128 128c-70.656 0-128-57.344-128-128s57.344-128 128-128zM256 320c-35.328 0-64-28.608-64-64s28.672-64 64-64c35.392 0 64 28.608 64 64s-28.608 64-64 64z" p-id="8005"></path></svg>