<?xml version="1.0" standalone="no"?><!DOCTYPE svg PUBLIC "-//W3C//DTD SVG 1.1//EN" "http://www.w3.org/Graphics/SVG/1.1/DTD/svg11.dtd"><svg t="1585533618585" class="icon" viewBox="0 0 1024 1024" version="1.1" xmlns="http://www.w3.org/2000/svg" p-id="1262" xmlns:xlink="http://www.w3.org/1999/xlink" width="200" height="200"><defs><style type="text/css"></style></defs><path d="M853.333333 85.333333c56.8832 0 85.333333 28.450133 85.333334 85.333334v85.333333H85.333333v-85.333333c0-56.8832 28.450133-85.333333 85.333334-85.333334h682.666666z m-640 85.333334c0-11.946667-4.266667-22.186667-12.8-30.72-7.970133-7.970133-17.92-11.946667-29.866666-11.946667s-22.186667 3.976533-30.72 11.946667c-7.970133 8.533333-11.946667 18.773333-11.946667 30.72s3.976533 21.896533 11.946667 29.866666c8.533333 8.533333 18.773333 12.8 30.72 12.8s21.896533-4.266667 29.866666-12.8c8.533333-7.970133 12.8-17.92 12.8-29.866666z m182.613334-30.72c-7.970133 8.533333-11.946667 18.773333-11.946667 30.72s3.976533 21.896533 11.946667 29.866666c8.533333 8.533333 18.773333 12.8 30.72 12.8s21.896533-4.266667 29.866666-12.8c8.533333-7.970133 12.8-17.92 12.8-29.866666s-4.266667-22.186667-12.8-30.72c-7.970133-7.970133-17.92-11.946667-29.866666-11.946667s-22.186667 3.976533-30.72 11.946667zM343.04 170.666667c0-11.946667-4.266667-22.186667-12.8-30.72-7.970133-7.970133-17.92-11.946667-29.866667-11.946667s-22.186667 3.976533-30.72 11.946667c-7.953067 8.533333-11.946667 18.773333-11.946666 30.72s3.976533 21.896533 11.946666 29.866666c8.533333 8.533333 18.773333 12.8 30.72 12.8s21.896533-4.266667 29.866667-12.8c8.533333-7.970133 12.8-17.92 12.8-29.866666z" p-id="1263"></path><path d="M853.333333 955.733333H170.666667c-66.030933 0-102.4-36.369067-102.4-102.4V170.666667c0-66.030933 36.369067-102.4 102.4-102.4h682.666666c66.030933 0 102.4 36.369067 102.4 102.4v682.666666c0 66.030933-36.369067 102.4-102.4 102.4zM102.4 273.066667v580.266666c0 47.223467 21.0432 68.266667 68.266667 68.266667h682.666666c47.223467 0 68.266667-21.0432 68.266667-68.266667V273.066667H102.4z m0-34.133334h819.2v-68.266666c0-47.223467-21.0432-68.266667-68.266667-68.266667H170.666667c-47.223467 0-68.266667 21.0432-68.266667 68.266667v68.266666z m407.893333 580.266667h-0.034133a17.134933 17.134933 0 0 1-12.731733-5.7344L285.0816 574.549333A17.066667 17.066667 0 0 1 297.813333 546.133333h68.266667V375.466667a17.066667 17.066667 0 0 1 17.066667-17.066667h256a17.066667 17.066667 0 0 1 17.066666 17.066667v170.666666h68.266667a17.066667 17.066667 0 0 1 12.6976 28.4672l-214.186667 238.933334A17.066667 17.066667 0 0 1 510.293333 819.2zM335.872 580.266667l174.472533 196.232533L686.267733 580.266667H639.146667a17.066667 17.066667 0 0 1-17.066667-17.066667V392.533333h-221.866667v170.666667a17.066667 17.066667 0 0 1-17.066666 17.066667h-47.274667z" p-id="1264"></path></svg>