<?xml version="1.0" standalone="no"?><!DOCTYPE svg PUBLIC "-//W3C//DTD SVG 1.1//EN" "http://www.w3.org/Graphics/SVG/1.1/DTD/svg11.dtd"><svg t="1563521298999" class="icon" viewBox="0 0 1024 1024" version="1.1" xmlns="http://www.w3.org/2000/svg" p-id="13664" xmlns:xlink="http://www.w3.org/1999/xlink" width="200" height="200"><defs><style type="text/css"></style></defs><path d="M1008 512h-112V144a16 16 0 0 0-16-16H352a16 16 0 0 0-16 16v96H144a16 16 0 0 0-16 16v256H16a16 16 0 0 0-16 16v352a16 16 0 0 0 16 16h992a16 16 0 0 0 16-16V528a16 16 0 0 0-16-16zM432 224h368v288H432V224z m-208 112h112v176h-112z m704 464H96V608h832z" fill="" p-id="13665"></path><path d="M768 656l64 0 0 96-64 0 0-96Z" fill="" p-id="13666"></path><path d="M656 656l64 0 0 96-64 0 0-96Z" fill="" p-id="13667"></path><path d="M240 704m-48 0a48 48 0 1 0 96 0 48 48 0 1 0-96 0Z" fill="" p-id="13668"></path><path d="M400 704m-48 0a48 48 0 1 0 96 0 48 48 0 1 0-96 0Z" fill="" p-id="13669"></path><path d="M496 288l240 0 0 64-240 0 0-64Z" fill="" p-id="13670"></path><path d="M496 384l176 0 0 64-176 0 0-64Z" fill="" p-id="13671"></path></svg>