<?xml version="1.0" standalone="no"?><!DOCTYPE svg PUBLIC "-//W3C//DTD SVG 1.1//EN" "http://www.w3.org/Graphics/SVG/1.1/DTD/svg11.dtd"><svg t="1562654223572" class="icon" viewBox="0 0 1024 1024" version="1.1" xmlns="http://www.w3.org/2000/svg" p-id="2307" xmlns:xlink="http://www.w3.org/1999/xlink" width="200" height="200"><defs><style type="text/css"></style></defs><path d="M64 896V192a64 64 0 0 1 64-64h64v64H128v704h768V192h-64V128h64a64 64 0 0 1 64 64v704a64 64 0 0 1-64 64H128a64 64 0 0 1-64-64z m224-192h448a32 32 0 1 1 0 64h-448a32 32 0 1 1 0-64z m0-192h448a32 32 0 1 1 0 64h-448a32 32 0 0 1 0-64z m0-192h448a32 32 0 1 1 0 64h-448a32 32 0 0 1 0-64z m448-256a32 32 0 0 1 32 32v64a32 32 0 1 1-64 0v-64a32 32 0 0 1 32-32zM384 128h256v64H384V128zM288 64a32 32 0 0 1 32 32v64a32 32 0 0 1-64 0v-64a32 32 0 0 1 32-32z" fill="#4C4C4C" p-id="2308"></path></svg>