<?xml version="1.0" standalone="no"?><!DOCTYPE svg PUBLIC "-//W3C//DTD SVG 1.1//EN" "http://www.w3.org/Graphics/SVG/1.1/DTD/svg11.dtd"><svg t="1565938899828" class="icon" viewBox="0 0 1024 1024" version="1.1" xmlns="http://www.w3.org/2000/svg" p-id="2878" xmlns:xlink="http://www.w3.org/1999/xlink" width="200" height="200"><defs><style type="text/css"></style></defs><path d="M379.428571 86.857143h-64c-5.028571 0-9.142857 4.114286-9.142857 9.142857v64c0 5.028571 4.114286 9.142857 9.142857 9.142857h64c5.028571 0 9.142857-4.114286 9.142858-9.142857v-64c0-5.028571-4.114286-9.142857-9.142858-9.142857z m-50.285714 781.714286h-64c-5.028571 0-9.142857 4.114286-9.142857 9.142857v64c0 5.028571 4.114286 9.142857 9.142857 9.142857h64c5.028571 0 9.142857-4.114286 9.142857-9.142857v-64c0-5.028571-4.114286-9.142857-9.142857-9.142857z m598.857143-233.142858h-64c-5.028571 0-9.142857 4.114286-9.142857 9.142858v64c0 5.028571 4.114286 9.142857 9.142857 9.142857h64c5.028571 0 9.142857-4.114286 9.142857-9.142857v-64c0-5.028571-4.114286-9.142857-9.142857-9.142858zM146.285714 320h-64c-5.028571 0-9.142857 4.114286-9.142857 9.142857v64c0 5.028571 4.114286 9.142857 9.142857 9.142857h64c5.028571 0 9.142857-4.114286 9.142857-9.142857v-64c0-5.028571-4.114286-9.142857-9.142857-9.142857z m0 182.857143h-64c-5.028571 0-9.142857 4.114286-9.142857 9.142857v64c0 5.028571 4.114286 9.142857 9.142857 9.142857h64c5.028571 0 9.142857-4.114286 9.142857-9.142857v-64c0-5.028571-4.114286-9.142857-9.142857-9.142857z m0 182.857143h-64c-5.028571 0-9.142857 4.114286-9.142857 9.142857v64c0 5.028571 4.114286 9.142857 9.142857 9.142857h64c5.028571 0 9.142857-4.114286 9.142857-9.142857v-64c0-5.028571-4.114286-9.142857-9.142857-9.142857z m0 182.857143h-64c-5.028571 0-9.142857 4.114286-9.142857 9.142857v64c0 5.028571 4.114286 9.142857 9.142857 9.142857h64c5.028571 0 9.142857-4.114286 9.142857-9.142857v-64c0-5.028571-4.114286-9.142857-9.142857-9.142857z m365.714286 0h-64c-5.028571 0-9.142857 4.114286-9.142857 9.142857v64c0 5.028571 4.114286 9.142857 9.142857 9.142857h64c5.028571 0 9.142857-4.114286 9.142857-9.142857v-64c0-5.028571-4.114286-9.142857-9.142857-9.142857z m182.857143 0h-64c-5.028571 0-9.142857 4.114286-9.142857 9.142857v64c0 5.028571 4.114286 9.142857 9.142857 9.142857h64c5.028571 0 9.142857-4.114286 9.142857-9.142857v-64c0-5.028571-4.114286-9.142857-9.142857-9.142857z m160-324.571429c0 5.028571 4.114286 9.142857 9.142857 9.142857h64c5.028571 0 9.142857-4.114286 9.142857-9.142857V349.714286c0-145.142857-117.714286-262.857143-262.857143-262.857143H480c-5.028571 0-9.142857 4.114286-9.142857 9.142857v64c0 5.028571 4.114286 9.142857 9.142857 9.142857h194.285714c99.771429 0 180.571429 80.8 180.571429 180.571429v194.285714zM196.571429 36.571429H32c-5.028571 0-9.142857 4.114286-9.142857 9.142857v164.571428c0 5.028571 4.114286 9.142857 9.142857 9.142857h164.571429c5.028571 0 9.142857-4.114286 9.142857-9.142857V45.714286c0-5.028571-4.114286-9.142857-9.142857-9.142857z m-54.857143 116.114285c0 1.485714-1.257143 2.742857-2.742857 2.742857h-49.371429c-1.485714 0-2.742857-1.257143-2.742857-2.742857v-49.371428c0-1.485714 1.257143-2.742857 2.742857-2.742857h49.371429c1.485714 0 2.742857 1.257143 2.742857 2.742857v49.371428zM978.285714 818.285714H813.714286c-5.028571 0-9.142857 4.114286-9.142857 9.142857v164.571429c0 5.028571 4.114286 9.142857 9.142857 9.142857h164.571428c5.028571 0 9.142857-4.114286 9.142857-9.142857V827.428571c0-5.028571-4.114286-9.142857-9.142857-9.142857z m-54.857143 116.114286c0 1.485714-1.257143 2.742857-2.742857 2.742857h-49.371428c-1.485714 0-2.742857-1.257143-2.742857-2.742857v-49.371429c0-1.485714 1.257143-2.742857 2.742857-2.742857h49.371428c1.485714 0 2.742857 1.257143 2.742857 2.742857v49.371429z" p-id="2879"></path></svg>