<?xml version="1.0" standalone="no"?><!DOCTYPE svg PUBLIC "-//W3C//DTD SVG 1.1//EN" "http://www.w3.org/Graphics/SVG/1.1/DTD/svg11.dtd"><svg t="1566546196880" class="icon" viewBox="0 0 1024 1024" version="1.1" xmlns="http://www.w3.org/2000/svg" p-id="3739" xmlns:xlink="http://www.w3.org/1999/xlink" width="200" height="200"><defs><style type="text/css"></style></defs><path d="M182.716825 267.730276c75.462139-99.464609 194.70677-163.84 329.283175-163.84 180.187872 0 333.099184 115.315722 389.978037 276.039691h96.506638C938.331731 167.588269 743.534642 11.877045 511.97742 11.877045 345.472988 11.877045 198.296979 92.622889 106.193429 216.744785L5.915943 149.908181V471.920617l276.039691-138.031135-99.238809-66.159206z m559.304961 434.212128l99.238809 66.181786c-75.462139 99.464609-194.70677 163.84-329.260595 163.84-180.210452 0-333.076604-115.315722-389.978037-276.039692H25.470165c60.152944 212.341698 254.927453 368.052922 486.507255 368.052922 166.504432 0 313.680441-80.745843 405.761411-204.86774l100.300066 66.836604V563.933848l-276.017111 138.008556z m-92.01323-322.035017H373.991444a45.995325 45.995325 0 1 0 0 92.01323h276.039692a46.040485 46.040485 0 0 0-0.02258-92.01323z m0 184.026461H373.991444a45.995325 45.995325 0 1 0 0 92.01323h276.039692a45.995325 45.995325 0 1 0-0.02258-92.01323z" fill="#1296db" p-id="3740"></path></svg>