<?xml version="1.0" standalone="no"?><!DOCTYPE svg PUBLIC "-//W3C//DTD SVG 1.1//EN" "http://www.w3.org/Graphics/SVG/1.1/DTD/svg11.dtd"><svg t="1565658457903" class="icon" viewBox="0 0 1024 1024" version="1.1" xmlns="http://www.w3.org/2000/svg" p-id="2871" xmlns:xlink="http://www.w3.org/1999/xlink" width="200" height="200"><defs><style type="text/css"></style></defs><path d="M1010.346667 384H938.666667V98.986667a13.653333 13.653333 0 0 0-13.653334-13.653334H640V13.653333a13.653333 13.653333 0 0 0-13.653333-13.653333H397.653333A13.653333 13.653333 0 0 0 384 13.653333V85.333333H98.986667a13.653333 13.653333 0 0 0-13.653334 13.653334V384H13.653333a13.653333 13.653333 0 0 0-13.653333 13.653333v228.693334a13.653333 13.653333 0 0 0 13.653333 13.653333H85.333333v285.013333a13.653333 13.653333 0 0 0 13.653334 13.653334H384v71.68a13.653333 13.653333 0 0 0 13.653333 13.653333h228.693334a13.653333 13.653333 0 0 0 13.653333-13.653333V938.666667h285.013333a13.653333 13.653333 0 0 0 13.653334-13.653334V640h71.68a13.653333 13.653333 0 0 0 13.653333-13.653333V397.653333a13.653333 13.653333 0 0 0-13.653333-13.653333zM460.8 76.8h102.4v102.4h-102.4V76.8z m-384 486.4v-102.4h102.4v102.4H76.8z m486.4 384h-102.4v-102.4h102.4v102.4z m298.666667-85.333333H640v-80.213334a13.653333 13.653333 0 0 0-13.653333-13.653333H397.653333a13.653333 13.653333 0 0 0-13.653333 13.653333v80.213334H162.133333V640h80.213334a13.653333 13.653333 0 0 0 13.653333-13.653333V397.653333A13.653333 13.653333 0 0 0 242.346667 384H162.133333V162.133333H384v80.213334a13.653333 13.653333 0 0 0 13.653333 13.653333h228.693334a13.653333 13.653333 0 0 0 13.653333-13.653333V162.133333h221.866667V384h-80.213334a13.653333 13.653333 0 0 0-13.653333 13.653333v228.693334a13.653333 13.653333 0 0 0 13.653333 13.653333h80.213334z m85.333333-298.666667h-102.4v-102.4h102.4z" p-id="2872"></path></svg>