<?xml version="1.0" standalone="no"?><!DOCTYPE svg PUBLIC "-//W3C//DTD SVG 1.1//EN" "http://www.w3.org/Graphics/SVG/1.1/DTD/svg11.dtd"><svg t="1565658396785" class="icon" viewBox="0 0 1024 1024" version="1.1" xmlns="http://www.w3.org/2000/svg" p-id="2744" xmlns:xlink="http://www.w3.org/1999/xlink" width="200" height="200"><defs><style type="text/css"></style></defs><path d="M803.648 86.976c0-19.2-15.616-34.88-34.88-34.88l-732.864 0c-19.264 0-34.88 15.68-34.88 34.88l0 81.92 802.624 0 0-81.92zM804.416 265.792l0-63.552-802.624 0 0 664.128c0 18.56 14.592 33.408 32.896 34.496l400.512 0c61.248 44.992 136.576 71.872 218.368 71.872 204.16 0 369.664-165.504 369.664-369.664 0-150.4-89.92-279.488-218.816-337.28zM63.872 298.624l152.704 0 0 152.704-152.704 0 0-152.704zM216.64 804.48l-152.768 0 0-152.704 152.704 0 0 152.704zM219.712 630.976l-152.704 0 0-152.704 152.704 0 0 152.704zM238.08 804.48l0-152.704 49.344 0c7.36 55.808 27.008 107.648 56.384 152.704l-105.728 0zM285.312 630.976l-44.16 0 0-152.704 64.768 0c-14.016 39.04-22.08 80.96-22.08 124.8 0 9.408 0.768 18.688 1.472 27.904zM390.784 343.168c-30.784 31.104-55.872 67.776-74.112 108.16l-78.592 0 0-152.704 152.704 0 0 44.544zM412.288 323.392l0-24.768 31.744 0c-11.072 7.68-21.568 16-31.744 24.768zM855.04 698.816c0 6.08-4.928 10.944-10.88 10.944l-127.296 0 0 38.144 90.56 0c5.952 0 10.88 4.864 10.88 10.944l0 31.68c0 6.016-4.928 10.88-10.88 10.88l-307.712 0c-5.952 0-10.944-4.864-10.944-10.88l0-31.68c0-6.016 4.992-10.944 10.944-10.944l90.624 0 0-38.144-127.36 0c-6.016 0-10.944-4.864-10.944-10.944l0-283.2c0-5.952 4.928-10.88 10.944-10.88l381.184 0c5.952 0 10.88 4.928 10.88 10.88l0 283.2zM789.696 459.2l-272.32 0c-5.952 0-10.88 4.864-10.88 10.88l0 174.272c0 6.016 4.928 10.88 10.88 10.88l272.256 0c5.952 0 10.944-4.864 10.944-10.88l0-174.272c0.064-5.952-4.928-10.88-10.88-10.88z" p-id="2745"></path></svg>