<?xml version="1.0" standalone="no"?><!DOCTYPE svg PUBLIC "-//W3C//DTD SVG 1.1//EN" "http://www.w3.org/Graphics/SVG/1.1/DTD/svg11.dtd"><svg t="1565658129320" class="icon" viewBox="0 0 1024 1024" version="1.1" xmlns="http://www.w3.org/2000/svg" p-id="1552" xmlns:xlink="http://www.w3.org/1999/xlink" width="200" height="200"><defs><style type="text/css"></style></defs><path d="M640 384h-129.28L469.333333 256l-41.386666 128H298.666667l105.386666 75.093333-40.106666 124.16 105.386666-76.8 105.386667 76.8-40.106667-124.16z m0 0h-129.28L469.333333 256l-41.386666 128H298.666667l105.386666 75.093333-40.106666 124.16 105.386666-76.8 105.386667 76.8-40.106667-124.16z m341.333333 85.546667L768 469.333333c-23.466667 0-42.666667 19.2-42.666667 42.666667v384c0 23.466667 19.2 42.666667 42.666667 42.666667h213.333333c23.466667 0 42.666667-19.2 42.666667-42.666667V512c0-23.466667-19.2-42.453333-42.666667-42.453333zM981.333333 853.333333H768V554.666667h213.333333v298.666666zM853.333333 85.333333H85.333333C37.973333 85.333333 0 123.306667 0 170.666667v512c0 46.933333 37.973333 85.333333 85.333333 85.333333h298.666667v85.333333h-85.333333v85.333334h341.333333v-85.333334h-85.333333v-85.333333h85.333333v-85.333333H85.333333V170.666667h768v213.333333h85.333334V170.666667c0-47.36-38.4-85.333333-85.333334-85.333334zM510.72 384L469.333333 256l-41.386666 128H298.666667l105.386666 75.093333-40.106666 124.16 105.386666-76.8 105.386667 76.8-40.106667-124.16L640 384h-129.28z" p-id="1553"></path></svg>