<?xml version="1.0" standalone="no"?><!DOCTYPE svg PUBLIC "-//W3C//DTD SVG 1.1//EN" "http://www.w3.org/Graphics/SVG/1.1/DTD/svg11.dtd"><svg t="1561519050698" class="icon" viewBox="0 0 1194 1024" version="1.1" xmlns="http://www.w3.org/2000/svg" p-id="2113" xmlns:xlink="http://www.w3.org/1999/xlink" width="55.96875" height="48"><defs><style type="text/css"></style></defs><path d="M819.541333 546.304a63.146667 63.146667 0 0 0 0 126.037333 62.890667 62.890667 0 0 0 0-126.037333z m0 192.682667a129.792 129.792 0 0 1-129.706666-129.706667c0-71.509333 58.282667-129.706667 129.706666-129.706667s129.706667 58.282667 129.706667 129.706667a129.706667 129.706667 0 0 1-129.706667 129.706667z m78.506667 89.6a4.266667 4.266667 0 0 0 2.048 0.512h0.170667l62.72-34.730667a106.069333 106.069333 0 0 1-8.448-38.4 99.84 99.84 0 0 1 94.634666-99.754667c0.682667-4.096 4.864-27.648 4.864-45.226666 0-17.749333-4.181333-41.130667-4.864-45.226667a100.010667 100.010667 0 0 1-94.634666-99.84c0-17.749333 6.997333-34.901333 8.533333-38.4l-61.781333-34.304h-0.170667c-0.853333 0-1.706667 0.256-2.389333 0.597333a175.36 175.36 0 0 1-22.869334 19.114667c-19.029333 13.482667-36.949333 20.224-53.418666 20.224-16.64 0-34.730667-6.826667-53.845334-20.48a163.84 163.84 0 0 1-23.04-19.626667 5.376 5.376 0 0 0-2.304-0.597333h-0.256l-64 35.157333c1.621333 3.584 8.533333 20.48 8.533334 38.4a100.010667 100.010667 0 0 1-94.634667 99.669334c-0.682667 4.181333-4.864 27.733333-4.864 45.226666 0 17.749333 4.010667 41.216 4.864 45.482667A100.010667 100.010667 0 0 1 687.530667 756.053333c0 17.92-6.997333 34.986667-8.533334 38.4l60.586667 33.877334h0.085333c0.938667 0 1.706667-0.341333 2.048-0.426667 7.082667-7.509333 14.848-14.250667 23.125334-20.394667 19.370667-14.250667 37.802667-21.333333 54.784-21.333333 17.152 0 35.84 7.338667 55.296 21.845333 12.970667 9.642667 22.016 19.370667 23.210666 20.565334z m19.882667 95.232a42.837333 42.837333 0 0 1-31.317334-13.312c-10.410667-11.349333-43.093333-40.789333-69.802666-40.789334-26.624 0-59.733333 29.610667-69.290667 39.936a43.093333 43.093333 0 0 1-47.018667 9.984l-0.853333-0.341333-81.408-45.568-0.853333-0.597333a39.082667 39.082667 0 0 1-13.056-47.189334c0-0.085333 7.509333-17.322667 7.509333-33.024 0-47.616-38.656-86.186667-86.357333-86.272h-3.413334c-13.568 0-24.746667-12.117333-28.330666-30.72a407.893333 407.893333 0 0 1-6.997334-65.109333c0-27.989333 6.656-63.402667 6.912-64.938667 3.584-18.944 14.848-31.146667 28.757334-30.805333h2.901333a86.442667 86.442667 0 0 0 86.186667-86.272c0-15.701333-7.424-32.853333-7.424-33.024a38.826667 38.826667 0 0 1 13.226666-47.104l0.853334-0.597333 85.845333-47.189334 0.938667-0.341333a43.52 43.52 0 0 1 46.933333 9.728c10.24 10.666667 42.325333 38.314667 68.266667 38.314667 25.770667 0 57.770667-27.136 67.84-37.546667a43.776 43.776 0 0 1 47.104-9.386667l0.853333 0.341334 82.944 46.08 0.853333 0.597333c14.848 10.325333 20.48 30.72 13.056 47.189333 0 0.085333-7.509333 17.237333-7.509333 32.938667 0 47.616 38.656 86.186667 86.272 86.186667h2.901333c13.824-0.256 25.173333 11.946667 28.757334 30.890666 0.170667 1.536 6.826667 37.034667 6.826666 64.938667 0 28.16-6.656 63.658667-6.997333 65.024-3.584 18.944-14.848 31.146667-28.757333 30.805333h-2.816a86.442667 86.442667 0 0 0-86.272 86.272c0 15.701333 7.424 32.938667 7.424 33.024a38.997333 38.997333 0 0 1-13.141334 47.189334l-0.853333 0.597333-84.394667 46.592-0.853333 0.341333a39.850667 39.850667 0 0 1-15.36 3.157334z m-599.552-32c0-28.842667 19.456-52.138667 43.52-52.138667h172.544c15.530667 0 29.866667 9.984 37.546666 26.026667 7.68 16.128 7.68 36.096 0 52.138666-7.68 16.128-22.016 26.112-37.546666 26.112H361.813333a39.936 39.936 0 0 1-30.72-15.189333 57.685333 57.685333 0 0 1-12.8-36.949333z" p-id="2114"></path><path d="M145.066667 635.306667h242.005333a51.2 51.2 0 1 1 0 102.4H128a85.333333 85.333333 0 0 1-85.333333-85.333334V85.333333a85.333333 85.333333 0 0 1 85.333333-85.333333h892.16a85.333333 85.333333 0 0 1 85.333333 85.333333v119.978667a51.2 51.2 0 1 1-102.4 0V102.4H145.066667v532.906667z" p-id="2115"></path></svg>