<?xml version="1.0" standalone="no"?><!DOCTYPE svg PUBLIC "-//W3C//DTD SVG 1.1//EN" "http://www.w3.org/Graphics/SVG/1.1/DTD/svg11.dtd"><svg t="1562654665509" class="icon" viewBox="0 0 1024 1024" version="1.1" xmlns="http://www.w3.org/2000/svg" p-id="5273" xmlns:xlink="http://www.w3.org/1999/xlink" width="200" height="200"><defs><style type="text/css"></style></defs><path d="M731.428571 1024a292.571429 292.571429 0 1 1 0-585.142857 292.571429 292.571429 0 0 1 0 585.142857z m0-512a219.501714 219.501714 0 0 0 0 438.857143 219.501714 219.501714 0 0 0 0-438.857143z m-73.142857 219.428571v-146.285714h73.142857v146.285714h73.142858v73.142858H658.285714v-73.142858z m-438.857143 73.142858v-73.142858h170.276572c-4.900571 24.064-2.852571 57.782857-1.170286 73.142858H219.428571z m0-512h438.857143v73.142857H219.428571v-73.142857z m0 219.428571h234.276572s-29.696 42.276571-37.741714 73.142857H219.428571v-73.142857z m585.142858-365.714286H658.285714v73.142857H585.142857v-73.142857H292.571429v73.142857H219.428571v-73.142857H73.142857v804.571429h376.905143c11.702857 25.965714 57.929143 64 76.8 73.142857H0v-950.857143h219.428571v-73.142857h73.142858v73.142857h292.571428v-73.142857h73.142857v73.142857h219.428572v323.364572a361.325714 361.325714 0 0 0-73.142857-23.478858V146.285714z" p-id="5274"></path></svg>