<?xml version="1.0" standalone="no"?><!DOCTYPE svg PUBLIC "-//W3C//DTD SVG 1.1//EN" "http://www.w3.org/Graphics/SVG/1.1/DTD/svg11.dtd"><svg t="1668418450884" class="icon" viewBox="0 0 1024 1024" version="1.1" xmlns="http://www.w3.org/2000/svg" p-id="4211" xmlns:xlink="http://www.w3.org/1999/xlink" width="200" height="200"><path d="M853.333333 426.666667h-128V379.733333c72.533333-17.066667 128-85.333333 128-166.4h-128V170.666667c0-25.6-17.066667-42.666667-42.666666-42.666667H341.333333c-25.6 0-42.666667 17.066667-42.666666 42.666667v42.666666H170.666667c0 81.066667 55.466667 145.066667 128 166.4V426.666667H170.666667c0 81.066667 55.466667 145.066667 128 166.4V640H170.666667c0 81.066667 55.466667 145.066667 128 166.4V853.333333c0 25.6 17.066667 42.666667 42.666666 42.666667h341.333334c25.6 0 42.666667-17.066667 42.666666-42.666667v-46.933333c72.533333-17.066667 128-85.333333 128-166.4h-128v-46.933333c72.533333-21.333333 128-85.333333 128-166.4z m-341.333333 384c-46.933333 0-85.333333-38.4-85.333333-85.333334s38.4-85.333333 85.333333-85.333333 85.333333 38.4 85.333333 85.333333-38.4 85.333333-85.333333 85.333334z m0-213.333334c-46.933333 0-85.333333-38.4-85.333333-85.333333s38.4-85.333333 85.333333-85.333333 85.333333 38.4 85.333333 85.333333-38.4 85.333333-85.333333 85.333333z m0-213.333333c-46.933333 0-85.333333-38.4-85.333333-85.333333s38.4-85.333333 85.333333-85.333334 85.333333 38.4 85.333333 85.333334-38.4 85.333333-85.333333 85.333333z" p-id="4212"></path></svg>