<?xml version="1.0" standalone="no"?><!DOCTYPE svg PUBLIC "-//W3C//DTD SVG 1.1//EN" "http://www.w3.org/Graphics/SVG/1.1/DTD/svg11.dtd"><svg t="1563516665496" class="icon" viewBox="0 0 1024 1024" version="1.1" xmlns="http://www.w3.org/2000/svg" p-id="10684" xmlns:xlink="http://www.w3.org/1999/xlink" width="200" height="200"><defs><style type="text/css"></style></defs><path d="M986.395 620.758c-50.13-50.132-131.408-50.132-181.539 0-40.854 40.853-48.409 102.39-22.677 150.899L614.244 939.593c-14.722 14.722-14.722 38.593 0 53.315 14.723 14.722 38.593 14.722 53.315 0l9.824-9.824 39.059 39.059c1.834 1.835 4.236 2.407 5.365 1.278l30.284-30.285c1.129-1.129 0.557-3.531-1.277-5.365l-39.059-39.059 16.404-16.404 16.989 16.99c1.835 1.835 4.237 2.406 5.366 1.277l30.284-30.284c1.129-1.129 0.557-3.531-1.277-5.365l-16.99-16.99 72.963-72.962c48.51 25.732 110.047 18.177 150.899-22.677 50.133-50.131 50.133-131.409 0.002-181.539z m-46.871 134.668c-24.206 24.206-63.592 24.206-87.798 0s-24.206-63.592 0-87.798 63.592-24.206 87.798 0 24.206 63.592 0 87.798z" p-id="10685"></path><path d="M512 512m-115.149 0a115.149 115.149 0 1 0 230.298 0 115.149 115.149 0 1 0-230.298 0Z" p-id="10686"></path><path d="M1024 512C1024 229.23 794.77 0 512 0S0 229.23 0 512c0 189.494 102.947 354.939 255.96 443.474l49.99-86.585c-31.024-17.934-59.583-39.865-85.278-65.561-37.87-37.87-67.59-81.941-88.336-130.99C110.879 621.609 100 567.664 100 512s10.879-109.609 32.336-160.338c20.746-49.049 50.466-93.121 88.336-130.99s81.941-67.59 130.99-88.336C402.391 110.879 456.336 100 512 100c55.663 0 109.609 10.879 160.338 32.336 49.049 20.746 93.12 50.466 130.99 88.336 37.869 37.87 67.59 81.941 88.336 130.99C913.121 402.391 924 456.336 924 512c0 4.425-0.076 8.837-0.214 13.239 35.979 5.361 69.427 20.984 96.876 45.411A517.442 517.442 0 0 0 1024 512z" p-id="10687"></path><path d="M709.146 684.883c5.782-40.632 24.208-77.477 53.284-106.552 18.072-18.072 39.173-32.011 62.154-41.36 0.649-8.239 0.99-16.564 0.99-24.971 0-173.182-140.393-313.574-313.574-313.574-173.182 0-313.574 140.392-313.574 313.574 0 116.056 63.052 217.378 156.765 271.601l49.983-86.574c-15.952-9.245-30.809-20.621-44.194-34.007-40.338-40.339-62.554-93.972-62.554-151.02s22.216-110.681 62.554-151.02c40.339-40.338 93.972-62.554 151.02-62.554s110.681 22.216 151.02 62.554c40.339 40.339 62.555 93.972 62.555 151.02 0 57.047-22.216 110.681-62.555 151.02-13.386 13.386-28.242 24.762-44.194 34.007l49.983 86.574a314.399 314.399 0 0 0 43.24-30.141c-5.089-22.409-6.151-45.76-2.903-68.577z" p-id="10688"></path></svg>